ChauncyItalic_OpticalMax.ufo
<glyph name="period" format="2">
  <advance width="181"/>
  <unicode hex="002E"/>
  <outline>
    <contour>
      <point x="92" y="-10" type="curve" smooth="yes"/>
      <point x="118.0" y="-10.0"/>
      <point x="155.0" y="39.0"/>
      <point x="155" y="88" type="curve" smooth="yes"/>
      <point x="155" y="111"/>
      <point x="145" y="127"/>
      <point x="124" y="127" type="curve" smooth="yes"/>
      <point x="97.0" y="127.0"/>
      <point x="61" y="69"/>
      <point x="61" y="29" type="curve" smooth="yes"/>
      <point x="61" y="7"/>
      <point x="71" y="-10"/>
    </contour>
  </outline>
</glyph>
<glyph name="at" format="2">
  <advance width="767"/>
  <unicode hex="0040"/>
  <outline>
    <contour>
      <point x="346" y="205" type="curve" smooth="yes"/>
      <point x="340" y="312"/>
      <point x="424" y="407"/>
      <point x="485" y="407" type="curve" smooth="yes"/>
      <point x="517" y="407"/>
      <point x="541" y="402"/>
      <point x="541" y="385" type="curve" smooth="yes"/>
      <point x="545" y="312"/>
      <point x="459" y="159"/>
      <point x="391" y="159" type="curve" smooth="yes"/>
      <point x="367" y="159"/>
      <point x="347" y="170"/>
    </contour>
    <contour>
      <point x="613" y="141" type="curve" smooth="yes"/>
      <point x="593" y="141"/>
      <point x="583.0" y="154.0"/>
      <point x="583" y="169" type="curve" smooth="yes"/>
      <point x="583" y="195"/>
      <point x="595" y="275"/>
      <point x="602" y="343" type="curve" smooth="yes"/>
      <point x="606" y="379"/>
      <point x="632" y="408"/>
      <point x="631" y="425" type="curve" smooth="yes"/>
      <point x="630" y="460"/>
      <point x="597" y="474"/>
      <point x="534" y="474" type="curve" smooth="yes"/>
      <point x="406" y="474"/>
      <point x="271" y="305"/>
      <point x="279" y="157" type="curve" smooth="yes"/>
      <point x="282" y="101"/>
      <point x="311" y="78"/>
      <point x="354" y="78" type="curve" smooth="yes"/>
      <point x="419" y="78"/>
      <point x="500" y="140"/>
      <point x="564" y="341" type="curve"/>
      <point x="530" y="307" type="line"/>
      <point x="534" y="236"/>
      <point x="508" y="170"/>
      <point x="510" y="118" type="curve" smooth="yes"/>
      <point x="512" y="94"/>
      <point x="522" y="78"/>
      <point x="561" y="78" type="curve" smooth="yes"/>
      <point x="665.7210300429185" y="78.0"/>
      <point x="805.0" y="228.1169590643275"/>
      <point x="805.0" y="418.0" type="curve" smooth="yes"/>
      <point x="805.0" y="565.2425531914894"/>
      <point x="740.6981132075472" y="655.0"/>
      <point x="592" y="655" type="curve" smooth="yes"/>
      <point x="332.19532908704883" y="655.0"/>
      <point x="114.0" y="378.71734892787526"/>
      <point x="114" y="132" type="curve" smooth="yes"/>
      <point x="114.0" y="-38.42007434944239"/>
      <point x="191.2826086956522" y="-127.0"/>
      <point x="351.0" y="-127.0" type="curve" smooth="yes"/>
      <point x="487" y="-127.0"/>
      <point x="596.7720186406098" y="-78.40077314082103"/>
      <point x="697" y="16" type="curve" smooth="yes"/>
      <point x="737" y="53"/>
      <point x="699" y="83"/>
      <point x="663" y="47" type="curve" smooth="yes"/>
      <point x="581.2312681466575" y="-34.768731853342516"/>
      <point x="477" y="-80.0"/>
      <point x="364.0" y="-80.0" type="curve" smooth="yes"/>
      <point x="239.6020942408377" y="-80.0"/>
      <point x="166.0" y="-8.099173553719027"/>
      <point x="166.0" y="152.0" type="curve" smooth="yes"/>
      <point x="166.0" y="347.2825112107623"/>
      <point x="361.36842105263156" y="608.0"/>
      <point x="572" y="608" type="curve" smooth="yes"/>
      <point x="690.0" y="608.0"/>
      <point x="753.0" y="529"/>
      <point x="753" y="406" type="curve" smooth="yes"/>
      <point x="753.0" y="250"/>
      <point x="663.6153846153846" y="141.0"/>
    </contour>
  </outline>
</glyph>
<glyph name="A" format="2">
  <advance width="616"/>
  <unicode hex="0041"/>
  <anchor x="612" y="766" name="center"/>
  <outline>
    <contour>
      <point x="216" y="254" type="line"/>
      <point x="202" y="211" type="line"/>
      <point x="514" y="211" type="line"/>
      <point x="525" y="254" type="line"/>
    </contour>
    <contour>
      <point x="111" y="121" type="line" smooth="yes"/>
      <point x="92" y="90"/>
      <point x="65" y="65"/>
      <point x="38" y="54" type="curve" smooth="yes"/>
      <point x="16" y="45"/>
      <point x="6.0" y="35.0"/>
      <point x="6" y="22" type="curve" smooth="yes"/>
      <point x="6.0" y="8.0"/>
      <point x="15.333333333333336" y="0"/>
      <point x="34" y="0" type="curve" smooth="yes"/>
      <point x="192" y="0" type="line" smooth="yes"/>
      <point x="216" y="0"/>
      <point x="230" y="7"/>
      <point x="230" y="22" type="curve" smooth="yes"/>
      <point x="230" y="36"/>
      <point x="221" y="43"/>
      <point x="196" y="57" type="curve" smooth="yes"/>
      <point x="176" y="69"/>
      <point x="169" y="82"/>
      <point x="169" y="97" type="curve" smooth="yes"/>
      <point x="169" y="111"/>
      <point x="173" y="124"/>
      <point x="188" y="149" type="curve" smooth="yes"/>
      <point x="273" y="287" type="line" smooth="yes"/>
      <point x="450" y="575"/>
      <point x="492" y="617"/>
      <point x="559" y="651" type="curve"/>
      <point x="483" y="631" type="line"/>
      <point x="479" y="424"/>
      <point x="472" y="263"/>
      <point x="458" y="113" type="curve" smooth="yes"/>
      <point x="455" y="82"/>
      <point x="431" y="63"/>
      <point x="412" y="56" type="curve" smooth="yes"/>
      <point x="384" y="46" type="line" smooth="yes"/>
      <point x="369" y="41"/>
      <point x="352" y="35"/>
      <point x="352" y="21" type="curve" smooth="yes"/>
      <point x="352" y="5"/>
      <point x="357" y="0"/>
      <point x="381" y="0" type="curve" smooth="yes"/>
      <point x="574" y="0" type="line" smooth="yes"/>
      <point x="599" y="0"/>
      <point x="612" y="10"/>
      <point x="612" y="21" type="curve" smooth="yes"/>
      <point x="612" y="33"/>
      <point x="609" y="39"/>
      <point x="591" y="51" type="curve" smooth="yes"/>
      <point x="571" y="65"/>
      <point x="562" y="83"/>
      <point x="562" y="115" type="curve" smooth="yes"/>
      <point x="564" y="274"/>
      <point x="572" y="448"/>
      <point x="581" y="616" type="curve" smooth="yes"/>
      <point x="583" y="650"/>
      <point x="635" y="660"/>
      <point x="635" y="686" type="curve" smooth="yes"/>
      <point x="635" y="701"/>
      <point x="627" y="710"/>
      <point x="606" y="710" type="curve" smooth="yes"/>
      <point x="518" y="710"/>
      <point x="420" y="624"/>
      <point x="224" y="305" type="curve" smooth="yes"/>
    </contour>
  </outline>
</glyph>
<glyph name="C" format="2">
  <advance width="636"/>
  <unicode hex="0043"/>
  <outline>
    <contour>
      <point x="648" y="182" type="curve" smooth="yes"/>
      <point x="648" y="196"/>
      <point x="642" y="203"/>
      <point x="632" y="203" type="curve" smooth="yes"/>
      <point x="620.2142857142857" y="203.0"/>
      <point x="613.0597751094771" y="192.62100349389965"/>
      <point x="599" y="172" type="curve" smooth="yes"/>
      <point x="545.2153202967943" y="92.84518836131988"/>
      <point x="485.0913705583756" y="63.0"/>
      <point x="395" y="63" type="curve" smooth="yes"/>
      <point x="301.8571428571429" y="63.0"/>
      <point x="232.0" y="146.34883720930233"/>
      <point x="232" y="287" type="curve" smooth="yes"/>
      <point x="232.0" y="479.430412371134"/>
      <point x="364.0" y="666.0"/>
      <point x="514" y="666" type="curve" smooth="yes"/>
      <point x="588" y="666"/>
      <point x="621" y="641"/>
      <point x="653" y="583" type="curve" smooth="yes"/>
      <point x="678" y="538" type="line" smooth="yes"/>
      <point x="686" y="523"/>
      <point x="694" y="512"/>
      <point x="708" y="512" type="curve" smooth="yes"/>
      <point x="721" y="512"/>
      <point x="731" y="520"/>
      <point x="730" y="540" type="curve" smooth="yes"/>
      <point x="725" y="679" type="line" smooth="yes"/>
      <point x="724" y="699"/>
      <point x="715" y="711"/>
      <point x="700" y="711" type="curve" smooth="yes"/>
      <point x="683" y="711"/>
      <point x="669" y="685"/>
      <point x="650" y="685" type="curve" smooth="yes"/>
      <point x="626" y="685"/>
      <point x="584" y="715"/>
      <point x="521" y="715" type="curve" smooth="yes"/>
      <point x="311.0" y="715.0"/>
      <point x="124.0" y="473.55555555555554"/>
      <point x="124" y="238" type="curve" smooth="yes"/>
      <point x="124.0" y="86.61475409836066"/>
      <point x="211.78378378378378" y="-15.0"/>
      <point x="348" y="-15" type="curve" smooth="yes"/>
      <point x="492.0034364261169" y="-15.0"/>
      <point x="599.0469785931208" y="62.10013858007318"/>
      <point x="637" y="143" type="curve" smooth="yes"/>
      <point x="645" y="160"/>
      <point x="648" y="170"/>
    </contour>
  </outline>
</glyph>
<glyph name="D" format="2">
  <advance width="634"/>
  <unicode hex="0044"/>
  <outline>
    <contour>
      <point x="304" y="20" type="curve" smooth="yes"/>
      <point x="267" y="20" type="line" smooth="yes"/>
      <point x="233" y="20"/>
      <point x="217.0" y="34.0"/>
      <point x="217" y="62" type="curve" smooth="yes"/>
      <point x="217" y="70"/>
      <point x="218" y="80"/>
      <point x="220" y="90" type="curve" smooth="yes"/>
      <point x="254" y="276"/>
      <point x="300" y="472"/>
      <point x="347" y="639" type="curve" smooth="yes"/>
      <point x="355" y="668"/>
      <point x="368" y="680"/>
      <point x="395" y="680" type="curve" smooth="yes"/>
      <point x="411" y="680.0" type="line" smooth="yes"/>
      <point x="544" y="680.0"/>
      <point x="629" y="584"/>
      <point x="629" y="423" type="curve" smooth="yes"/>
      <point x="629.0" y="197.0"/>
      <point x="468.0" y="20.0"/>
    </contour>
    <contour>
      <point x="25" y="9" type="curve" smooth="yes"/>
      <point x="24.00824404127991" y="2.057708288959371"/>
      <point x="27" y="0"/>
      <point x="36" y="0" type="curve" smooth="yes"/>
      <point x="298" y="0" type="line" smooth="yes"/>
      <point x="526" y="0"/>
      <point x="708.0" y="186.99999999999997"/>
      <point x="708" y="410" type="curve" smooth="yes"/>
      <point x="708.0" y="584.0"/>
      <point x="587.68345323741" y="700"/>
      <point x="412" y="700" type="curve" smooth="yes"/>
      <point x="219" y="700" type="line" smooth="yes"/>
      <point x="207" y="700"/>
      <point x="201.94604146846785" y="697.8111451396375"/>
      <point x="200" y="691" type="curve" smooth="yes"/>
      <point x="198.3338090944738" y="683.5021409251322"/>
      <point x="203" y="682"/>
      <point x="211" y="680" type="curve" smooth="yes"/>
      <point x="256" y="671" type="line" smooth="yes"/>
      <point x="269" y="668"/>
      <point x="272" y="659"/>
      <point x="269" y="640" type="curve" smooth="yes"/>
      <point x="241" y="483"/>
      <point x="195" y="287"/>
      <point x="126" y="55" type="curve" smooth="yes"/>
      <point x="121" y="38"/>
      <point x="109.72152885496135" y="28.99544461679382"/>
      <point x="91" y="26" type="curve" smooth="yes"/>
      <point x="41" y="18" type="line" smooth="yes"/>
      <point x="32" y="17"/>
      <point x="26.3669768853141" y="15.151395983913446"/>
    </contour>
  </outline>
</glyph>
<glyph name="E" format="2">
  <advance width="522"/>
  <unicode hex="0045"/>
  <anchor x="470" y="734" name="center"/>
  <outline>
    <contour>
      <point x="254" y="356" type="line"/>
      <point x="246" y="334" type="line"/>
      <point x="423" y="334.0" type="line" smooth="yes"/>
      <point x="461.0" y="334.0"/>
      <point x="486" y="316"/>
      <point x="504" y="271" type="curve" smooth="yes"/>
      <point x="507" y="263"/>
      <point x="510.0" y="261.0"/>
      <point x="514" y="261" type="curve" smooth="yes"/>
      <point x="517" y="261.0"/>
      <point x="522" y="264"/>
      <point x="520" y="272" type="curve" smooth="yes"/>
      <point x="489" y="427" type="line" smooth="yes"/>
      <point x="488" y="432"/>
      <point x="486.0" y="437.0"/>
      <point x="481" y="437" type="curve" smooth="yes"/>
      <point x="479" y="437.0"/>
      <point x="476" y="435"/>
      <point x="474" y="428" type="curve" smooth="yes"/>
      <point x="463" y="372"/>
      <point x="440" y="356"/>
      <point x="409" y="356.0" type="curve" smooth="yes"/>
    </contour>
    <contour>
      <point x="384" y="0" type="line" smooth="yes"/>
      <point x="406.0" y="0.0"/>
      <point x="418" y="-10.0"/>
      <point x="433" y="-10" type="curve" smooth="yes"/>
      <point x="472.8777777777778" y="-10.0"/>
      <point x="530.0" y="77.02380952380952"/>
      <point x="530" y="162" type="curve" smooth="yes"/>
      <point x="530.0" y="169.33333333333334"/>
      <point x="527.7142857142858" y="173.0"/>
      <point x="524" y="173" type="curve" smooth="yes"/>
      <point x="520.0" y="173.0"/>
      <point x="517" y="171"/>
      <point x="514" y="165" type="curve" smooth="yes"/>
      <point x="501" y="134" type="line" smooth="yes"/>
      <point x="468" y="56"/>
      <point x="413" y="21.0"/>
      <point x="319" y="21" type="curve" smooth="yes"/>
      <point x="261" y="21" type="line" smooth="yes"/>
      <point x="225" y="21"/>
      <point x="212" y="43"/>
      <point x="217" y="75" type="curve" smooth="yes"/>
      <point x="242" y="221"/>
      <point x="299" y="456"/>
      <point x="363" y="680" type="curve"/>
      <point x="502" y="680" type="line" smooth="yes"/>
      <point x="552" y="680"/>
      <point x="583" y="654"/>
      <point x="598" y="616" type="curve" smooth="yes"/>
      <point x="624" y="549" type="line" smooth="yes"/>
      <point x="626" y="543"/>
      <point x="629" y="541.0"/>
      <point x="634" y="541" type="curve" smooth="yes"/>
      <point x="637.1111111111111" y="541.0"/>
      <point x="641.5471526199963" y="544.9782080433812"/>
      <point x="641" y="552" type="curve" smooth="yes"/>
      <point x="629" y="706" type="line" smooth="yes"/>
      <point x="628.4743862545281" y="712.7453764002227"/>
      <point x="626" y="715.0"/>
      <point x="621" y="715" type="curve" smooth="yes"/>
      <point x="617.0714285714286" y="715.0"/>
      <point x="615" y="713"/>
      <point x="610" y="710" type="curve" smooth="yes"/>
      <point x="597" y="703"/>
      <point x="586" y="700"/>
      <point x="563" y="700.0" type="curve" smooth="yes"/>
      <point x="212" y="700" type="line" smooth="yes"/>
      <point x="205.06666666666666" y="700"/>
      <point x="199.0" y="697.6666666666666"/>
      <point x="199" y="693" type="curve" smooth="yes"/>
      <point x="199.0" y="687.1666666666666"/>
      <point x="202" y="685"/>
      <point x="210" y="683" type="curve" smooth="yes"/>
      <point x="254" y="674" type="line" smooth="yes"/>
      <point x="268" y="671"/>
      <point x="273" y="660"/>
      <point x="270" y="639" type="curve" smooth="yes"/>
      <point x="236.8251236821656" y="454.0249320460142"/>
      <point x="175.26506366211044" y="216.8222382987915"/>
      <point x="126" y="64" type="curve" smooth="yes"/>
      <point x="119" y="42"/>
      <point x="108.23630521312343" y="30.485445781968515"/>
      <point x="85" y="27" type="curve" smooth="yes"/>
      <point x="45" y="21" type="line" smooth="yes"/>
      <point x="33" y="19"/>
      <point x="27.239397016482286" y="16.577286574170284"/>
      <point x="26" y="11" type="curve" smooth="yes"/>
      <point x="24.04079247713596" y="3.1631699085438285"/>
      <point x="29" y="0"/>
      <point x="40" y="0" type="curve" smooth="yes"/>
    </contour>
  </outline>
</glyph>
<glyph name="F" format="2">
  <advance width="500"/>
  <unicode hex="0046"/>
  <outline>
    <contour>
      <point x="202" y="693" type="curve" smooth="yes"/>
      <point x="200" y="686"/>
      <point x="209" y="686"/>
      <point x="227" y="682" type="curve" smooth="yes"/>
      <point x="256" y="676" type="line" smooth="yes"/>
      <point x="269" y="673"/>
      <point x="274" y="659"/>
      <point x="270" y="640" type="curve" smooth="yes"/>
      <point x="231.51462866335217" y="443.5220515971138"/>
      <point x="184.0" y="251.0"/>
      <point x="128" y="70" type="curve" smooth="yes"/>
      <point x="119.99925344186076" y="44.997667005814876"/>
      <point x="108" y="31"/>
      <point x="86" y="27" type="curve" smooth="yes"/>
      <point x="41" y="19" type="line" smooth="yes"/>
      <point x="30.451460855786234" y="17.124704152139774"/>
      <point x="27" y="14"/>
      <point x="26" y="10" type="curve" smooth="yes"/>
      <point x="24" y="4"/>
      <point x="29" y="0"/>
      <point x="36" y="0" type="curve" smooth="yes"/>
      <point x="271" y="0" type="line" smooth="yes"/>
      <point x="286" y="0"/>
      <point x="290.0" y="4.0"/>
      <point x="290" y="9" type="curve" smooth="yes"/>
      <point x="290.0" y="15.0"/>
      <point x="285" y="17"/>
      <point x="272" y="18" type="curve" smooth="yes"/>
      <point x="219" y="22"/>
      <point x="209.0" y="37.0"/>
      <point x="216" y="74" type="curve" smooth="yes"/>
      <point x="249" y="246"/>
      <point x="294.96989240286916" y="449.596166200785"/>
      <point x="365" y="681" type="curve"/>
      <point x="491" y="681" type="line" smooth="yes"/>
      <point x="551.0" y="681.0"/>
      <point x="582" y="659"/>
      <point x="603" y="603" type="curve" smooth="yes"/>
      <point x="623" y="550" type="line" smooth="yes"/>
      <point x="626" y="543"/>
      <point x="629.0188679245283" y="541.0"/>
      <point x="634" y="541" type="curve" smooth="yes"/>
      <point x="638" y="541.0"/>
      <point x="642" y="545"/>
      <point x="641" y="553" type="curve" smooth="yes"/>
      <point x="629" y="708" type="line" smooth="yes"/>
      <point x="628.66230085385" y="712.3619473044375"/>
      <point x="626.6" y="715.0"/>
      <point x="623" y="715.0" type="curve" smooth="yes"/>
      <point x="618" y="715"/>
      <point x="615.0" y="713"/>
      <point x="610" y="710" type="curve" smooth="yes"/>
      <point x="601" y="704"/>
      <point x="584.2881355932203" y="700"/>
      <point x="573" y="700" type="curve" smooth="yes"/>
      <point x="238" y="700" type="line" smooth="yes"/>
      <point x="218" y="700"/>
      <point x="204" y="699"/>
    </contour>
    <contour>
      <point x="259" y="346" type="line"/>
      <point x="252" y="324" type="line"/>
      <point x="422" y="324" type="line" smooth="yes"/>
      <point x="465" y="324"/>
      <point x="487" y="301"/>
      <point x="503" y="262" type="curve" smooth="yes"/>
      <point x="506" y="254"/>
      <point x="510" y="252.0"/>
      <point x="515" y="252" type="curve" smooth="yes"/>
      <point x="519" y="252.0"/>
      <point x="522" y="255"/>
      <point x="520" y="263" type="curve" smooth="yes"/>
      <point x="489" y="418" type="line" smooth="yes"/>
      <point x="488" y="422"/>
      <point x="486" y="426.0"/>
      <point x="481" y="426" type="curve" smooth="yes"/>
      <point x="478.0" y="426.0"/>
      <point x="476" y="424"/>
      <point x="474" y="417" type="curve" smooth="yes"/>
      <point x="463" y="367"/>
      <point x="446" y="346.0"/>
      <point x="403" y="346" type="curve" smooth="yes"/>
    </contour>
  </outline>
</glyph>
<glyph name="H" format="2">
  <advance width="655"/>
  <unicode hex="0048"/>
  <outline>
    <contour>
      <point x="239" y="351" type="line"/>
      <point x="234" y="329" type="line"/>
      <point x="601" y="329" type="line"/>
      <point x="606" y="351" type="line"/>
    </contour>
    <component base="I"/>
    <component base="I" xOffset="359"/>
  </outline>
</glyph>
<glyph name="K" format="2">
  <advance width="642"/>
  <unicode hex="004B"/>
  <outline>
    <contour>
      <point x="354" y="350" type="line"/>
      <point x="464" y="91" type="line" smooth="yes"/>
      <point x="497" y="13"/>
      <point x="530.0" y="-10.0"/>
      <point x="581" y="-10" type="curve" smooth="yes"/>
      <point x="619.0714285714286" y="-10.0"/>
      <point x="659.0" y="29.26086956521739"/>
      <point x="659" y="76" type="curve" smooth="yes"/>
      <point x="659.0" y="80"/>
      <point x="656" y="84"/>
      <point x="651" y="84" type="curve" smooth="yes"/>
      <point x="643.0" y="84.0"/>
      <point x="634.0" y="51.0"/>
      <point x="607" y="51" type="curve" smooth="yes"/>
      <point x="581.0" y="51.0"/>
      <point x="558" y="73"/>
      <point x="528" y="136" type="curve" smooth="yes"/>
      <point x="404" y="398" type="line"/>
    </contour>
    <contour>
      <point x="216" y="192" type="line"/>
      <point x="609" y="612" type="line" smooth="yes"/>
      <point x="631.7842926826326" y="636.349625767699"/>
      <point x="652.75" y="648.0"/>
      <point x="679" y="648" type="curve" smooth="yes"/>
      <point x="702.4222222222222" y="648.0"/>
      <point x="716.4" y="616.0"/>
      <point x="747" y="616" type="curve" smooth="yes"/>
      <point x="772.0" y="616.0"/>
      <point x="797.0" y="635"/>
      <point x="797" y="663" type="curve" smooth="yes"/>
      <point x="797.0" y="687.0731707317074"/>
      <point x="778" y="710"/>
      <point x="743" y="710.0" type="curve" smooth="yes"/>
      <point x="699" y="710.0"/>
      <point x="655" y="687"/>
      <point x="596" y="623" type="curve" smooth="yes"/>
      <point x="208" y="205" type="line"/>
    </contour>
    <component base="I"/>
  </outline>
</glyph>
<glyph name="M" format="2">
  <advance width="750"/>
  <unicode hex="004D"/>
  <outline>
    <contour>
      <point x="444" y="164" type="line"/>
      <point x="418" y="330"/>
      <point x="392" y="502"/>
      <point x="368" y="679" type="curve" smooth="yes"/>
      <point x="366" y="694"/>
      <point x="358" y="700"/>
      <point x="343" y="700" type="curve" smooth="yes"/>
      <point x="241" y="700" type="line" smooth="yes"/>
      <point x="231" y="700"/>
      <point x="224" y="698"/>
      <point x="222" y="691" type="curve" smooth="yes"/>
      <point x="221" y="685"/>
      <point x="225" y="681"/>
      <point x="234" y="676" type="curve" smooth="yes"/>
      <point x="279" y="651" type="line" smooth="yes"/>
      <point x="286" y="647"/>
      <point x="291" y="640"/>
      <point x="287" y="628" type="curve" smooth="yes"/>
      <point x="122" y="84" type="line" smooth="yes"/>
      <point x="114" y="57"/>
      <point x="100" y="42"/>
      <point x="73" y="34" type="curve" smooth="yes"/>
      <point x="23" y="19" type="line" smooth="yes"/>
      <point x="15.141983283344597" y="16.64259498500338"/>
      <point x="11.912754854290304" y="13.563774271451521"/>
      <point x="11" y="9" type="curve" smooth="yes"/>
      <point x="10" y="4"/>
      <point x="14" y="0"/>
      <point x="21" y="0" type="curve" smooth="yes"/>
      <point x="208" y="0" type="line" smooth="yes"/>
      <point x="213.5" y="0"/>
      <point x="219.0" y="3.5555555555555554"/>
      <point x="219" y="8" type="curve" smooth="yes"/>
      <point x="219.0" y="12.09090909090909"/>
      <point x="216" y="15"/>
      <point x="210" y="17" type="curve" smooth="yes"/>
      <point x="165" y="32" type="line" smooth="yes"/>
      <point x="139.42067247381448" y="40.52644250872851"/>
      <point x="136.038444879552" y="59.162703324384"/>
      <point x="143" y="82" type="curve" smooth="yes"/>
      <point x="307" y="620" type="line"/>
      <point x="300" y="613" type="line"/>
      <point x="328.2179908735203" y="440.66869859385815"/>
      <point x="359" y="264"/>
      <point x="382" y="87" type="curve" smooth="yes"/>
      <point x="384" y="77"/>
      <point x="387.45454545454544" y="72.0"/>
      <point x="392" y="72" type="curve" smooth="yes"/>
      <point x="396.7368421052632" y="72.0"/>
      <point x="401" y="74"/>
      <point x="407" y="84" type="curve" smooth="yes"/>
      <point x="727" y="611" type="line"/>
      <point x="716" y="614" type="line"/>
      <point x="686.0" y="420.0"/>
      <point x="650.0" y="238"/>
      <point x="614" y="69" type="curve" smooth="yes"/>
      <point x="609" y="46"/>
      <point x="594" y="35"/>
      <point x="577" y="30" type="curve" smooth="yes"/>
      <point x="528" y="16" type="line" smooth="yes"/>
      <point x="520.691624506765" y="13.911892716218592"/>
      <point x="517" y="12"/>
      <point x="516" y="7" type="curve" smooth="yes"/>
      <point x="515" y="2"/>
      <point x="518" y="0"/>
      <point x="525" y="0" type="curve" smooth="yes"/>
      <point x="738" y="0" type="line" smooth="yes"/>
      <point x="747.0" y="0.0"/>
      <point x="751" y="1"/>
      <point x="752" y="6" type="curve" smooth="yes"/>
      <point x="753" y="10"/>
      <point x="751" y="13"/>
      <point x="743" y="16" type="curve" smooth="yes"/>
      <point x="718" y="25" type="line" smooth="yes"/>
      <point x="697" y="32"/>
      <point x="690" y="43"/>
      <point x="694" y="69" type="curve" smooth="yes"/>
      <point x="724.0" y="254.0"/>
      <point x="762.0" y="444.0"/>
      <point x="802" y="638" type="curve" smooth="yes"/>
      <point x="805" y="652"/>
      <point x="813" y="659"/>
      <point x="823" y="662" type="curve" smooth="yes"/>
      <point x="885" y="680" type="line" smooth="yes"/>
      <point x="892" y="682"/>
      <point x="897" y="684"/>
      <point x="898" y="691" type="curve" smooth="yes"/>
      <point x="900" y="697"/>
      <point x="897" y="700"/>
      <point x="888" y="700" type="curve" smooth="yes"/>
      <point x="888.0" y="700.0"/>
      <point x="792.2372881355932" y="700.0"/>
      <point x="775" y="700" type="curve" smooth="yes"/>
      <point x="763" y="700"/>
      <point x="751" y="695"/>
      <point x="744" y="683" type="curve" smooth="yes"/>
      <point x="431" y="161" type="line"/>
    </contour>
  </outline>
</glyph>
<glyph name="N" format="2">
  <advance width="578"/>
  <unicode hex="004E"/>
  <outline>
    <contour>
      <point x="155" y="81" type="line" smooth="yes"/>
      <point x="149" y="59"/>
      <point x="154" y="47"/>
      <point x="181" y="35" type="curve" smooth="yes"/>
      <point x="220" y="18" type="line" smooth="yes"/>
      <point x="228" y="15"/>
      <point x="230" y="12"/>
      <point x="230" y="8" type="curve" smooth="yes"/>
      <point x="230" y="3"/>
      <point x="224" y="0"/>
      <point x="215" y="0" type="curve" smooth="yes"/>
      <point x="31" y="0" type="line" smooth="yes"/>
      <point x="21" y="0"/>
      <point x="16" y="3"/>
      <point x="16" y="10" type="curve" smooth="yes"/>
      <point x="16" y="14"/>
      <point x="19" y="17"/>
      <point x="30" y="20" type="curve" smooth="yes"/>
      <point x="82" y="37" type="line" smooth="yes"/>
      <point x="108" y="46"/>
      <point x="127" y="60"/>
      <point x="134" y="86" type="curve" smooth="yes"/>
      <point x="265" y="567" type="line" smooth="yes"/>
      <point x="268" y="580"/>
      <point x="265" y="582"/>
      <point x="260" y="592" type="curve" smooth="yes"/>
      <point x="219" y="676" type="line" smooth="yes"/>
      <point x="216" y="682"/>
      <point x="212" y="686"/>
      <point x="213" y="691" type="curve" smooth="yes"/>
      <point x="214" y="697"/>
      <point x="219" y="700"/>
      <point x="225" y="700" type="curve" smooth="yes"/>
      <point x="297" y="700" type="line" smooth="yes"/>
      <point x="305" y="700"/>
      <point x="311" y="695"/>
      <point x="315" y="684" type="curve" smooth="yes"/>
      <point x="402" y="444"/>
      <point x="465" y="279"/>
      <point x="524" y="140" type="curve"/>
      <point x="505" y="124" type="line"/>
      <point x="627" y="607" type="line" smooth="yes"/>
      <point x="647" y="687"/>
      <point x="687" y="715"/>
      <point x="718" y="715" type="curve" smooth="yes"/>
      <point x="740" y="715"/>
      <point x="751" y="701"/>
      <point x="752" y="681" type="curve" smooth="yes"/>
      <point x="753.0" y="655"/>
      <point x="725" y="635"/>
      <point x="697" y="622" type="curve" smooth="yes"/>
      <point x="663" y="606.0"/>
      <point x="645" y="586"/>
      <point x="636" y="550" type="curve" smooth="yes"/>
      <point x="533" y="143" type="line" smooth="yes"/>
      <point x="529" y="126"/>
      <point x="528" y="118"/>
      <point x="528" y="111" type="curve" smooth="yes"/>
      <point x="528" y="90"/>
      <point x="543" y="44"/>
      <point x="543" y="17" type="curve" smooth="yes"/>
      <point x="543" y="5"/>
      <point x="534" y="0"/>
      <point x="524" y="0" type="curve" smooth="yes"/>
      <point x="486" y="0" type="line" smooth="yes"/>
      <point x="475" y="0"/>
      <point x="471" y="6"/>
      <point x="471" y="14" type="curve" smooth="yes"/>
      <point x="471" y="34"/>
      <point x="474" y="51"/>
      <point x="470" y="63" type="curve" smooth="yes"/>
      <point x="424" y="201"/>
      <point x="359" y="378"/>
      <point x="278" y="569" type="curve"/>
      <point x="291" y="578" type="line"/>
    </contour>
  </outline>
</glyph>
<glyph name="O" format="2">
  <advance width="672"/>
  <unicode hex="004F"/>
  <anchor x="548" y="773" name="center"/>
  <outline>
    <contour>
      <point x="500" y="714" type="curve" smooth="yes"/>
      <point x="276.4213197969543" y="714.0"/>
      <point x="117.0" y="483.0"/>
      <point x="117" y="257" type="curve" smooth="yes"/>
      <point x="117" y="95"/>
      <point x="208" y="-15"/>
      <point x="349" y="-15" type="curve" smooth="yes"/>
      <point x="550.925" y="-15.0"/>
      <point x="743.0" y="182.0"/>
      <point x="743" y="445" type="curve" smooth="yes"/>
      <point x="743" y="604"/>
      <point x="650" y="714"/>
    </contour>
    <contour>
      <point x="653.0" y="205.0"/>
      <point x="502.08000000000004" y="8.0"/>
      <point x="359" y="8" type="curve" smooth="yes"/>
      <point x="265" y="8"/>
      <point x="205" y="100"/>
      <point x="205" y="237" type="curve" smooth="yes"/>
      <point x="205" y="497"/>
      <point x="358" y="695.0"/>
      <point x="488" y="695" type="curve" smooth="yes"/>
      <point x="588" y="695"/>
      <point x="653.0" y="615.0"/>
      <point x="653" y="464" type="curve" smooth="yes"/>
    </contour>
  </outline>
</glyph>
<glyph name="Q" format="2">
  <advance width="753"/>
  <unicode hex="0051"/>
  <outline>
    <contour>
      <point x="393" y="77" type="curve" smooth="yes"/>
      <point x="393" y="-44"/>
      <point x="469" y="-150"/>
      <point x="559" y="-150" type="curve" smooth="yes"/>
      <point x="591" y="-150"/>
      <point x="617" y="-133"/>
      <point x="638" y="-97" type="curve" smooth="yes"/>
      <point x="651" y="-74"/>
      <point x="655" y="-64"/>
      <point x="655" y="-54" type="curve" smooth="yes"/>
      <point x="655" y="-46"/>
      <point x="650" y="-39"/>
      <point x="639" y="-39" type="curve" smooth="yes"/>
      <point x="622" y="-39"/>
      <point x="606" y="-54"/>
      <point x="581" y="-54" type="curve" smooth="yes"/>
      <point x="502" y="-54"/>
      <point x="443" y="30"/>
      <point x="443" y="124" type="curve" smooth="yes"/>
      <point x="443" y="153"/>
      <point x="447" y="172"/>
      <point x="447" y="185" type="curve" smooth="yes"/>
      <point x="447" y="196"/>
      <point x="443" y="205"/>
      <point x="432" y="205" type="curve" smooth="yes"/>
      <point x="411" y="205"/>
      <point x="393" y="161"/>
    </contour>
    <component base="O"/>
  </outline>
</glyph>
<glyph name="R" format="2">
  <advance width="629"/>
  <unicode hex="0052"/>
  <outline>
    <contour>
      <point x="260" y="285" type="move"/>
      <point x="285" y="270"/>
      <point x="322" y="258"/>
      <point x="362" y="259" type="curve" smooth="yes"/>
      <point x="538.9959715981254" y="262.9999089626695"/>
      <point x="704.0" y="343.9391634980989"/>
      <point x="704" y="510" type="curve" smooth="yes"/>
      <point x="704" y="617"/>
      <point x="615" y="700"/>
      <point x="480" y="700" type="curve" smooth="yes"/>
      <point x="248" y="700" type="line" smooth="yes"/>
      <point x="226.0" y="700.0"/>
      <point x="213" y="694"/>
      <point x="213" y="681" type="curve" smooth="yes"/>
      <point x="213" y="666"/>
      <point x="218" y="661"/>
      <point x="235" y="658" type="curve" smooth="yes"/>
      <point x="258" y="652" type="line" smooth="yes"/>
      <point x="277" y="647"/>
      <point x="283" y="634"/>
      <point x="278" y="607" type="curve" smooth="yes"/>
      <point x="250" y="446"/>
      <point x="208" y="276"/>
      <point x="142" y="92" type="curve" smooth="yes"/>
      <point x="133" y="67"/>
      <point x="121" y="53"/>
      <point x="98" y="48" type="curve" smooth="yes"/>
      <point x="72" y="42" type="line" smooth="yes"/>
      <point x="53" y="38"/>
      <point x="38" y="33"/>
      <point x="38" y="19" type="curve" smooth="yes"/>
      <point x="38" y="8"/>
      <point x="42" y="0"/>
      <point x="64" y="0" type="curve" smooth="yes"/>
      <point x="286" y="0" type="line" smooth="yes"/>
      <point x="307" y="0"/>
      <point x="322" y="5"/>
      <point x="322" y="19" type="curve" smooth="yes"/>
      <point x="322" y="34"/>
      <point x="316" y="38"/>
      <point x="300" y="42" type="curve" smooth="yes"/>
      <point x="276" y="48" type="line" smooth="yes"/>
      <point x="257" y="53"/>
      <point x="251" y="66"/>
      <point x="256" y="92" type="curve" smooth="yes"/>
      <point x="293" y="293"/>
      <point x="337" y="453"/>
      <point x="390" y="611" type="curve" smooth="yes"/>
      <point x="399" y="639"/>
      <point x="423" y="657"/>
      <point x="468" y="657" type="curve" smooth="yes"/>
      <point x="552" y="657"/>
      <point x="603" y="595"/>
      <point x="603" y="509" type="curve" smooth="yes"/>
      <point x="603.0" y="383.3888888888889"/>
      <point x="499.0" y="305.0"/>
      <point x="361" y="305" type="curve" smooth="yes"/>
      <point x="323" y="305"/>
      <point x="289" y="313"/>
      <point x="274" y="323" type="curve" smooth="yes"/>
    </contour>
    <contour>
      <point x="356" y="283" type="line"/>
      <point x="418.0" y="145.0" type="line" smooth="yes"/>
      <point x="474.0341151156422" y="20.27890506518348"/>
      <point x="503.6986301369863" y="-15.0"/>
      <point x="554" y="-15" type="curve" smooth="yes"/>
      <point x="602.375" y="-15.0"/>
      <point x="644.0" y="20.735294117647058"/>
      <point x="644" y="66" type="curve" smooth="yes"/>
      <point x="644.0" y="80.66666666666667"/>
      <point x="636.2272727272727" y="92.0"/>
      <point x="625" y="92" type="curve" smooth="yes"/>
      <point x="616" y="92.0"/>
      <point x="607" y="84"/>
      <point x="594" y="84" type="curve" smooth="yes"/>
      <point x="564" y="84.0"/>
      <point x="536.0501815288409" y="107.42962484039545"/>
      <point x="499" y="184" type="curve" smooth="yes"/>
      <point x="454" y="277" type="line"/>
    </contour>
  </outline>
</glyph>
<glyph name="S" format="2">
  <advance width="478"/>
  <unicode hex="0053"/>
  <outline>
    <contour>
      <point x="266" y="-15" type="curve" smooth="yes"/>
      <point x="388" y="-15.0"/>
      <point x="476" y="77"/>
      <point x="476" y="179" type="curve" smooth="yes"/>
      <point x="476.0" y="252.3862433862434"/>
      <point x="441.70408896598246" y="306.21932229580125"/>
      <point x="357" y="369" type="curve" smooth="yes"/>
      <point x="267.68206285710403" y="435.2357736115858"/>
      <point x="242.0" y="474.69620253164555"/>
      <point x="242" y="536" type="curve" smooth="yes"/>
      <point x="242.0" y="621.6470588235294"/>
      <point x="308.0" y="696.0"/>
      <point x="412" y="696" type="curve" smooth="yes"/>
      <point x="468.57142857142856" y="696.0"/>
      <point x="510.6353852912256" y="668.9970726652788"/>
      <point x="520" y="610" type="curve" smooth="yes"/>
      <point x="530" y="547" type="line" smooth="yes"/>
      <point x="533.3373084938918" y="525.974956488482"/>
      <point x="544.0" y="517.0"/>
      <point x="560" y="517" type="curve" smooth="yes"/>
      <point x="585.0" y="517.0"/>
      <point x="602.0" y="542.5072463768115"/>
      <point x="602" y="572" type="curve" smooth="yes"/>
      <point x="602.0" y="641.3809523809524"/>
      <point x="537.0588235294117" y="713.0"/>
      <point x="418" y="713" type="curve" smooth="yes"/>
      <point x="273.0" y="713.0"/>
      <point x="183.0" y="597.2838427947598"/>
      <point x="183" y="494" type="curve" smooth="yes"/>
      <point x="183.0" y="431.33333333333337"/>
      <point x="217.29281549905681" y="373.78357115287105"/>
      <point x="309" y="306" type="curve" smooth="yes"/>
      <point x="381.29120684095665" y="252.78563940874022"/>
      <point x="413.0" y="211.76821192052978"/>
      <point x="413" y="153" type="curve" smooth="yes"/>
      <point x="413.0" y="63.807947019867555"/>
      <point x="355.6054421768707" y="5.0"/>
      <point x="270" y="5" type="curve" smooth="yes"/>
      <point x="184.0" y="5.0"/>
      <point x="119.35712427062485" y="61.80975923875181"/>
      <point x="112" y="155" type="curve" smooth="yes"/>
      <point x="109" y="193" type="line" smooth="yes"/>
      <point x="108" y="204"/>
      <point x="103" y="206.0"/>
      <point x="98" y="206" type="curve" smooth="yes"/>
      <point x="93" y="206.0"/>
      <point x="89" y="200"/>
      <point x="88" y="191" type="curve" smooth="yes"/>
      <point x="72" y="13" type="line" smooth="yes"/>
      <point x="72" y="8"/>
      <point x="72" y="4"/>
      <point x="72" y="1" type="curve" smooth="yes"/>
      <point x="72.0" y="-6.586206896551724"/>
      <point x="74.11764705882354" y="-10.0"/>
      <point x="81" y="-10" type="curve" smooth="yes"/>
      <point x="96.91489361702128" y="-10.0"/>
      <point x="113.0" y="27.0"/>
      <point x="125" y="27" type="curve" smooth="yes"/>
      <point x="145.0" y="27.0"/>
      <point x="185" y="-15.0"/>
    </contour>
  </outline>
</glyph>
<glyph name="T" format="2">
  <advance width="562"/>
  <unicode hex="0054"/>
  <outline>
    <contour>
      <point x="332" y="715" type="curve" smooth="yes"/>
      <point x="225" y="715"/>
      <point x="175" y="664"/>
      <point x="175" y="601" type="curve" smooth="yes"/>
      <point x="175" y="560"/>
      <point x="199" y="537"/>
      <point x="234" y="537" type="curve" smooth="yes"/>
      <point x="268" y="537"/>
      <point x="290" y="560"/>
      <point x="290" y="583" type="curve" smooth="yes"/>
      <point x="290" y="609"/>
      <point x="272" y="624"/>
      <point x="272" y="644" type="curve" smooth="yes"/>
      <point x="272" y="664"/>
      <point x="286" y="677"/>
      <point x="326" y="677" type="curve" smooth="yes"/>
      <point x="459" y="677"/>
      <point x="612" y="612"/>
      <point x="681" y="612" type="curve" smooth="yes"/>
      <point x="727" y="612"/>
      <point x="760" y="653"/>
      <point x="760" y="701" type="curve" smooth="yes"/>
      <point x="760" y="740"/>
      <point x="750" y="757"/>
      <point x="734" y="757" type="curve" smooth="yes"/>
      <point x="715" y="757"/>
      <point x="704" y="745"/>
      <point x="687" y="720" type="curve" smooth="yes"/>
      <point x="664" y="687"/>
      <point x="644" y="676"/>
      <point x="603" y="676" type="curve" smooth="yes"/>
      <point x="545" y="676"/>
      <point x="408" y="715"/>
    </contour>
    <contour>
      <point x="432" y="677" type="line"/>
      <point x="391" y="493"/>
      <point x="336" y="306"/>
      <point x="268" y="92" type="curve" smooth="yes"/>
      <point x="260" y="67"/>
      <point x="247" y="53"/>
      <point x="224" y="48" type="curve" smooth="yes"/>
      <point x="198" y="42" type="line" smooth="yes"/>
      <point x="179" y="38"/>
      <point x="168" y="33"/>
      <point x="164" y="19" type="curve" smooth="yes"/>
      <point x="161" y="6"/>
      <point x="168" y="0"/>
      <point x="190" y="0" type="curve" smooth="yes"/>
      <point x="412" y="0" type="line" smooth="yes"/>
      <point x="433" y="0"/>
      <point x="445" y="6"/>
      <point x="448" y="19" type="curve" smooth="yes"/>
      <point x="452" y="33"/>
      <point x="442" y="38"/>
      <point x="426" y="42" type="curve" smooth="yes"/>
      <point x="402" y="48" type="line" smooth="yes"/>
      <point x="383" y="53"/>
      <point x="377" y="66"/>
      <point x="382" y="92" type="curve" smooth="yes"/>
      <point x="426" y="321"/>
      <point x="471" y="485"/>
      <point x="519" y="659" type="curve"/>
    </contour>
  </outline>
</glyph>
<glyph name="U" format="2">
  <advance width="579"/>
  <unicode hex="0055"/>
  <anchor x="514" y="738" name="center"/>
  <outline>
    <contour>
      <point x="530" y="200" type="line" smooth="yes"/>
      <point x="496" y="78"/>
      <point x="431" y="19"/>
      <point x="342" y="19" type="curve" smooth="yes"/>
      <point x="267" y="19"/>
      <point x="218" y="61"/>
      <point x="218" y="145" type="curve" smooth="yes"/>
      <point x="218" y="183"/>
      <point x="224" y="229"/>
      <point x="246" y="307" type="curve" smooth="yes"/>
      <point x="336" y="635" type="line" smooth="yes"/>
      <point x="344" y="665"/>
      <point x="361" y="676"/>
      <point x="425" y="686" type="curve" smooth="yes"/>
      <point x="436" y="688"/>
      <point x="439" y="691"/>
      <point x="439" y="694" type="curve" smooth="yes"/>
      <point x="439" y="698"/>
      <point x="435" y="700"/>
      <point x="425" y="700" type="curve" smooth="yes"/>
      <point x="198" y="700" type="line" smooth="yes"/>
      <point x="190" y="700"/>
      <point x="187" y="697"/>
      <point x="187" y="693" type="curve" smooth="yes"/>
      <point x="187" y="690"/>
      <point x="188" y="688"/>
      <point x="198" y="686" type="curve" smooth="yes"/>
      <point x="242" y="678"/>
      <point x="256" y="669"/>
      <point x="256" y="652" type="curve" smooth="yes"/>
      <point x="256" y="646"/>
      <point x="255" y="636"/>
      <point x="253" y="627" type="curve" smooth="yes"/>
      <point x="169" y="307" type="line" smooth="yes"/>
      <point x="156" y="256"/>
      <point x="133" y="176"/>
      <point x="133" y="136" type="curve" smooth="yes"/>
      <point x="133" y="51"/>
      <point x="187" y="-10"/>
      <point x="298" y="-10" type="curve" smooth="yes"/>
      <point x="434" y="-10"/>
      <point x="515" y="64"/>
      <point x="553" y="200" type="curve" smooth="yes"/>
      <point x="669" y="620" type="line" smooth="yes"/>
      <point x="676" y="646"/>
      <point x="688" y="657"/>
      <point x="758" y="683" type="curve" smooth="yes"/>
      <point x="764" y="685"/>
      <point x="766" y="689"/>
      <point x="766" y="692" type="curve" smooth="yes"/>
      <point x="766" y="696"/>
      <point x="763" y="700"/>
      <point x="759" y="700" type="curve" smooth="yes"/>
      <point x="584" y="700" type="line" smooth="yes"/>
      <point x="579" y="700"/>
      <point x="576" y="697"/>
      <point x="576" y="693" type="curve" smooth="yes"/>
      <point x="576" y="690"/>
      <point x="577" y="687"/>
      <point x="583" y="685" type="curve" smooth="yes"/>
      <point x="645" y="660"/>
      <point x="651" y="655"/>
      <point x="651" y="641" type="curve" smooth="yes"/>
      <point x="651" y="635"/>
      <point x="650" y="629"/>
      <point x="647" y="620" type="curve" smooth="yes"/>
    </contour>
  </outline>
</glyph>
<glyph name="W" format="2">
  <advance width="921"/>
  <unicode hex="0057"/>
  <anchor x="670" y="739" name="center"/>
  <outline>
    <contour>
      <point x="608" y="589" type="line"/>
      <point x="292" y="70" type="line"/>
      <point x="340" y="79" type="line"/>
      <point x="342" y="243"/>
      <point x="346" y="481"/>
      <point x="350" y="587" type="curve" smooth="yes"/>
      <point x="351" y="624"/>
      <point x="366" y="645"/>
      <point x="398" y="650" type="curve" smooth="yes"/>
      <point x="429" y="655"/>
      <point x="444" y="665"/>
      <point x="444" y="680" type="curve" smooth="yes"/>
      <point x="444" y="694"/>
      <point x="436" y="700"/>
      <point x="420" y="700" type="curve" smooth="yes"/>
      <point x="228" y="700" type="line" smooth="yes"/>
      <point x="212" y="700"/>
      <point x="197" y="692"/>
      <point x="197" y="669" type="curve" smooth="yes"/>
      <point x="197" y="635"/>
      <point x="241" y="635"/>
      <point x="242" y="591" type="curve" smooth="yes"/>
      <point x="246" y="434"/>
      <point x="246" y="236"/>
      <point x="240" y="117" type="curve" smooth="yes"/>
      <point x="239" y="92"/>
      <point x="224" y="62"/>
      <point x="224" y="35" type="curve" smooth="yes"/>
      <point x="224" y="14"/>
      <point x="230" y="0"/>
      <point x="249" y="0" type="curve" smooth="yes"/>
      <point x="298" y="0" type="line" smooth="yes"/>
      <point x="319" y="0"/>
      <point x="334" y="15"/>
      <point x="339" y="34" type="curve" smooth="yes"/>
      <point x="352" y="79"/>
      <point x="365" y="103"/>
      <point x="379" y="127" type="curve" smooth="yes"/>
      <point x="623" y="533" type="line"/>
    </contour>
    <contour>
      <point x="893" y="674" type="curve" smooth="yes"/>
      <point x="893" y="660"/>
      <point x="903" y="648"/>
      <point x="927" y="636" type="curve" smooth="yes"/>
      <point x="955" y="621"/>
      <point x="958" y="614"/>
      <point x="959" y="606" type="curve" smooth="yes"/>
      <point x="960" y="592"/>
      <point x="954" y="577"/>
      <point x="943" y="558" type="curve" smooth="yes"/>
      <point x="649" y="61" type="line"/>
      <point x="716" y="79" type="line"/>
      <point x="700" y="245"/>
      <point x="697" y="481"/>
      <point x="697" y="587" type="curve" smooth="yes"/>
      <point x="697" y="621"/>
      <point x="711" y="642"/>
      <point x="742" y="652" type="curve" smooth="yes"/>
      <point x="769" y="661"/>
      <point x="779" y="668"/>
      <point x="779" y="681" type="curve" smooth="yes"/>
      <point x="779" y="694"/>
      <point x="773" y="700"/>
      <point x="756" y="700" type="curve" smooth="yes"/>
      <point x="567" y="700" type="line" smooth="yes"/>
      <point x="551" y="700"/>
      <point x="537" y="692"/>
      <point x="536" y="678" type="curve" smooth="yes"/>
      <point x="535" y="667"/>
      <point x="542" y="661"/>
      <point x="556" y="651" type="curve" smooth="yes"/>
      <point x="574" y="638"/>
      <point x="586" y="629"/>
      <point x="590" y="591" type="curve" smooth="yes"/>
      <point x="604" y="439"/>
      <point x="612" y="285"/>
      <point x="612" y="127" type="curve" smooth="yes"/>
      <point x="612" y="95"/>
      <point x="592" y="60"/>
      <point x="592" y="37" type="curve" smooth="yes"/>
      <point x="592" y="15"/>
      <point x="603" y="0"/>
      <point x="622" y="0" type="curve" smooth="yes"/>
      <point x="665" y="0" type="line" smooth="yes"/>
      <point x="686" y="0"/>
      <point x="706" y="16"/>
      <point x="709" y="43" type="curve" smooth="yes"/>
      <point x="713" y="78"/>
      <point x="730" y="102"/>
      <point x="744" y="126" type="curve" smooth="yes"/>
      <point x="1006" y="566" type="line" smooth="yes"/>
      <point x="1038" y="619"/>
      <point x="1052" y="630"/>
      <point x="1083" y="644" type="curve" smooth="yes"/>
      <point x="1108" y="655"/>
      <point x="1117" y="664"/>
      <point x="1117" y="680" type="curve" smooth="yes"/>
      <point x="1117" y="694"/>
      <point x="1108" y="700"/>
      <point x="1090" y="700" type="curve" smooth="yes"/>
      <point x="928" y="700" type="line" smooth="yes"/>
      <point x="908" y="700"/>
      <point x="893" y="689"/>
    </contour>
  </outline>
</glyph>
<glyph name="X" format="2">
  <advance width="657"/>
  <unicode hex="0058"/>
  <outline>
    <contour>
      <point x="463" y="355" type="line"/>
      <point x="633" y="594"/>
      <point x="663" y="620"/>
      <point x="710" y="620" type="curve" smooth="yes"/>
      <point x="731" y="620"/>
      <point x="745" y="596"/>
      <point x="773" y="596" type="curve" smooth="yes"/>
      <point x="802" y="596"/>
      <point x="832" y="622"/>
      <point x="832" y="661" type="curve" smooth="yes"/>
      <point x="832" y="691"/>
      <point x="811" y="715"/>
      <point x="768" y="715" type="curve" smooth="yes"/>
      <point x="692" y="715"/>
      <point x="638" y="677"/>
      <point x="432" y="375" type="curve"/>
      <point x="461" y="373" type="line"/>
      <point x="426" y="458"/>
      <point x="398" y="537"/>
      <point x="378" y="606" type="curve" smooth="yes"/>
      <point x="371" y="629"/>
      <point x="383" y="645"/>
      <point x="398" y="649" type="curve" smooth="yes"/>
      <point x="418" y="654" type="line" smooth="yes"/>
      <point x="434" y="658"/>
      <point x="445" y="666"/>
      <point x="445" y="680" type="curve" smooth="yes"/>
      <point x="445" y="693"/>
      <point x="437" y="700"/>
      <point x="420" y="700" type="curve" smooth="yes"/>
      <point x="226" y="700" type="line" smooth="yes"/>
      <point x="206" y="700"/>
      <point x="193" y="692"/>
      <point x="193" y="680" type="curve" smooth="yes"/>
      <point x="193" y="668"/>
      <point x="200" y="660"/>
      <point x="221" y="651" type="curve" smooth="yes"/>
      <point x="242" y="641"/>
      <point x="250" y="637"/>
      <point x="263" y="609" type="curve" smooth="yes"/>
      <point x="297" y="527"/>
      <point x="340" y="430"/>
      <point x="372" y="346" type="curve"/>
    </contour>
    <contour>
      <point x="587" y="88" type="curve" smooth="yes"/>
      <point x="546" y="174"/>
      <point x="500" y="285"/>
      <point x="466" y="373" type="curve"/>
      <point x="386" y="368" type="line"/>
      <point x="313" y="278" type="line" smooth="yes"/>
      <point x="174" y="106"/>
      <point x="128" y="70"/>
      <point x="65" y="56" type="curve" smooth="yes"/>
      <point x="39" y="50"/>
      <point x="31" y="39"/>
      <point x="31" y="23" type="curve" smooth="yes"/>
      <point x="31" y="9"/>
      <point x="40" y="0"/>
      <point x="58" y="0" type="curve" smooth="yes"/>
      <point x="250" y="0" type="line" smooth="yes"/>
      <point x="270" y="0"/>
      <point x="285" y="11"/>
      <point x="285" y="26" type="curve" smooth="yes"/>
      <point x="285" y="36"/>
      <point x="277" y="42"/>
      <point x="261" y="54" type="curve" smooth="yes"/>
      <point x="252" y="61"/>
      <point x="247" y="71"/>
      <point x="247" y="77" type="curve" smooth="yes"/>
      <point x="247" y="110"/>
      <point x="258" y="142"/>
      <point x="354" y="266" type="curve" smooth="yes"/>
      <point x="413" y="342" type="line"/>
      <point x="376" y="345" type="line"/>
      <point x="416" y="243"/>
      <point x="444" y="169"/>
      <point x="471" y="97" type="curve" smooth="yes"/>
      <point x="475" y="84"/>
      <point x="476" y="78"/>
      <point x="476" y="73" type="curve" smooth="yes"/>
      <point x="476" y="61"/>
      <point x="465" y="52"/>
      <point x="444" y="49" type="curve" smooth="yes"/>
      <point x="422" y="46"/>
      <point x="412" y="34"/>
      <point x="412" y="19" type="curve" smooth="yes"/>
      <point x="412" y="8"/>
      <point x="419" y="0"/>
      <point x="436" y="0" type="curve" smooth="yes"/>
      <point x="620" y="0" type="line" smooth="yes"/>
      <point x="640" y="0"/>
      <point x="653" y="10"/>
      <point x="653" y="23" type="curve" smooth="yes"/>
      <point x="653" y="37"/>
      <point x="648" y="42"/>
      <point x="629" y="49" type="curve" smooth="yes"/>
      <point x="611" y="55"/>
      <point x="598" y="64"/>
    </contour>
  </outline>
</glyph>
<glyph name="Y" format="2">
  <advance width="579"/>
  <unicode hex="0059"/>
  <anchor x="476.0" y="748" name="center"/>
  <outline>
    <contour>
      <point x="341" y="204" type="curve"/>
      <point x="358" y="166" type="line"/>
      <point x="362" y="182"/>
      <point x="368" y="281"/>
      <point x="368" y="362" type="curve" smooth="yes"/>
      <point x="368" y="513"/>
      <point x="356" y="587"/>
      <point x="334" y="633" type="curve" smooth="yes"/>
      <point x="309" y="686"/>
      <point x="271" y="700"/>
      <point x="192" y="700" type="curve" smooth="yes"/>
      <point x="173" y="700"/>
      <point x="160" y="693"/>
      <point x="156" y="680" type="curve" smooth="yes"/>
      <point x="153" y="668"/>
      <point x="159" y="651"/>
      <point x="184" y="651" type="curve" smooth="yes"/>
      <point x="238" y="651"/>
      <point x="289" y="548"/>
      <point x="289" y="272" type="curve" smooth="yes"/>
      <point x="289" y="230"/>
      <point x="289" y="209"/>
      <point x="283" y="186" type="curve" smooth="yes"/>
      <point x="261" y="102" type="line" smooth="yes"/>
      <point x="253" y="70"/>
      <point x="235" y="54"/>
      <point x="209" y="48" type="curve" smooth="yes"/>
      <point x="183" y="42" type="line" smooth="yes"/>
      <point x="164" y="38"/>
      <point x="153" y="33"/>
      <point x="149" y="19" type="curve" smooth="yes"/>
      <point x="146" y="6"/>
      <point x="153" y="0"/>
      <point x="174" y="0" type="curve" smooth="yes"/>
      <point x="397" y="0" type="line" smooth="yes"/>
      <point x="418" y="0"/>
      <point x="429" y="6"/>
      <point x="432" y="19" type="curve" smooth="yes"/>
      <point x="436" y="33"/>
      <point x="427" y="38"/>
      <point x="410" y="42" type="curve" smooth="yes"/>
      <point x="386" y="48" type="line" smooth="yes"/>
      <point x="364" y="53"/>
      <point x="356" y="65"/>
      <point x="362" y="92" type="curve" smooth="yes"/>
      <point x="380" y="168" type="line" smooth="yes"/>
      <point x="386" y="195"/>
      <point x="398" y="216"/>
      <point x="414" y="249" type="curve" smooth="yes"/>
      <point x="567" y="581"/>
      <point x="625" y="615"/>
      <point x="663" y="615" type="curve" smooth="yes"/>
      <point x="684" y="615"/>
      <point x="700" y="597"/>
      <point x="726" y="597" type="curve" smooth="yes"/>
      <point x="755" y="597"/>
      <point x="781" y="626"/>
      <point x="781" y="666" type="curve" smooth="yes"/>
      <point x="781" y="690"/>
      <point x="762" y="715"/>
      <point x="720" y="715" type="curve" smooth="yes"/>
      <point x="618" y="715"/>
      <point x="546" y="629"/>
    </contour>
  </outline>
</glyph>
<glyph name="a" format="2">
  <advance width="414"/>
  <unicode hex="0061"/>
  <anchor x="342" y="520" name="center"/>
  <outline>
    <contour>
      <point x="371" y="64" type="curve" smooth="yes"/>
      <point x="371" y="93"/>
      <point x="378" y="125"/>
      <point x="430" y="376" type="curve" smooth="yes"/>
      <point x="432" y="385"/>
      <point x="434" y="391"/>
      <point x="441" y="394" type="curve" smooth="yes"/>
      <point x="447" y="397"/>
      <point x="450" y="401"/>
      <point x="450" y="405" type="curve" smooth="yes"/>
      <point x="450" y="421"/>
      <point x="429" y="440"/>
      <point x="390" y="440" type="curve" smooth="yes"/>
      <point x="249" y="440"/>
      <point x="55" y="248"/>
      <point x="55" y="88" type="curve" smooth="yes"/>
      <point x="55" y="19"/>
      <point x="87" y="-9"/>
      <point x="131" y="-9" type="curve" smooth="yes"/>
      <point x="189.39795918367346" y="-9.0"/>
      <point x="262.12025116513854" y="51.25004607354205"/>
      <point x="325" y="182" type="curve"/>
      <point x="319" y="184" type="line"/>
      <point x="317.96668215837417" y="136.46737928521134"/>
      <point x="301.0" y="94.1"/>
      <point x="301" y="60" type="curve" smooth="yes"/>
      <point x="301" y="16"/>
      <point x="320" y="-10"/>
      <point x="348" y="-10" type="curve" smooth="yes"/>
      <point x="408" y="-10"/>
      <point x="435" y="30"/>
      <point x="435" y="72" type="curve" smooth="yes"/>
      <point x="435" y="76"/>
      <point x="434" y="77"/>
      <point x="431" y="77" type="curve" smooth="yes"/>
      <point x="429" y="77"/>
      <point x="427" y="76"/>
      <point x="426" y="72" type="curve" smooth="yes"/>
      <point x="422" y="41"/>
      <point x="407" y="25"/>
      <point x="389" y="25" type="curve" smooth="yes"/>
      <point x="378" y="25"/>
      <point x="371" y="38"/>
    </contour>
    <contour>
      <point x="125" y="121" type="curve" smooth="yes"/>
      <point x="125" y="278.0"/>
      <point x="236" y="400"/>
      <point x="338" y="400" type="curve" smooth="yes"/>
      <point x="355" y="400"/>
      <point x="362" y="392"/>
      <point x="362" y="377" type="curve" smooth="yes"/>
      <point x="362" y="251"/>
      <point x="255" y="32"/>
      <point x="167" y="32" type="curve" smooth="yes"/>
      <point x="145" y="32"/>
      <point x="125" y="53"/>
    </contour>
  </outline>
</glyph>
<glyph name="b" format="2">
  <advance width="419"/>
  <unicode hex="0062"/>
  <outline>
    <contour>
      <point x="256" y="491" type="line" smooth="yes"/>
      <point x="294" y="625"/>
      <point x="326" y="681"/>
      <point x="392" y="681" type="curve" smooth="yes"/>
      <point x="428" y="681"/>
      <point x="477" y="645"/>
      <point x="513" y="645" type="curve" smooth="yes"/>
      <point x="543" y="645"/>
      <point x="556" y="662"/>
      <point x="556" y="678" type="curve" smooth="yes"/>
      <point x="556" y="698"/>
      <point x="534" y="715"/>
      <point x="493" y="715" type="curve" smooth="yes"/>
      <point x="323" y="715"/>
      <point x="227" y="604"/>
      <point x="179" y="440" type="curve" smooth="yes"/>
      <point x="56" y="16" type="line" smooth="yes"/>
      <point x="52.659162397136726" y="4.483616718585141"/>
      <point x="52.0" y="0.1025641025641022"/>
      <point x="52" y="-4" type="curve" smooth="yes"/>
      <point x="52.0" y="-8.5"/>
      <point x="53.714285714285715" y="-10.0"/>
      <point x="55" y="-10" type="curve" smooth="yes"/>
      <point x="58.27272727272727" y="-10.0"/>
      <point x="60" y="-9"/>
      <point x="64" y="-4" type="curve" smooth="yes"/>
      <point x="116" y="56" type="line"/>
      <point x="91" y="102" type="line"/>
      <point x="91" y="24"/>
      <point x="129" y="-10"/>
      <point x="191" y="-10" type="curve" smooth="yes"/>
      <point x="321" y="-10"/>
      <point x="478" y="151"/>
      <point x="478" y="340" type="curve" smooth="yes"/>
      <point x="478" y="410"/>
      <point x="456" y="440"/>
      <point x="400" y="440" type="curve" smooth="yes"/>
      <point x="313" y="440"/>
      <point x="211" y="326"/>
      <point x="161" y="176" type="curve"/>
      <point x="166" y="170" type="line"/>
    </contour>
    <contour>
      <point x="355" y="394" type="curve" smooth="yes"/>
      <point x="393" y="394"/>
      <point x="415" y="366"/>
      <point x="415" y="309" type="curve" smooth="yes"/>
      <point x="415" y="127"/>
      <point x="298" y="12"/>
      <point x="219" y="12" type="curve" smooth="yes"/>
      <point x="180" y="12"/>
      <point x="155" y="38"/>
      <point x="155" y="94" type="curve" smooth="yes"/>
      <point x="155" y="203"/>
      <point x="279" y="394"/>
    </contour>
  </outline>
</glyph>
<glyph name="c" format="2">
  <advance width="338"/>
  <unicode hex="0063"/>
  <anchor x="307" y="492" name="center"/>
  <outline>
    <contour>
      <point x="292" y="418" type="curve" smooth="yes"/>
      <point x="319.8235294117647" y="418.0"/>
      <point x="335.0" y="398.3695652173913"/>
      <point x="335" y="375" type="curve" smooth="yes"/>
      <point x="335.0" y="359.22033898305085"/>
      <point x="327.0" y="340.1186440677966"/>
      <point x="327" y="326" type="curve" smooth="yes"/>
      <point x="327" y="305"/>
      <point x="339" y="292"/>
      <point x="356" y="292" type="curve" smooth="yes"/>
      <point x="383.3269230769231" y="292.0"/>
      <point x="405.0" y="316.0"/>
      <point x="405" y="357" type="curve" smooth="yes"/>
      <point x="405.0" y="397.0"/>
      <point x="374.33333333333337" y="440.0"/>
      <point x="313" y="440" type="curve" smooth="yes"/>
      <point x="185.74025974025975" y="440.0"/>
      <point x="74.0" y="268.3478260869565"/>
      <point x="74" y="111" type="curve" smooth="yes"/>
      <point x="74.0" y="34.4296875"/>
      <point x="112.34782608695652" y="-10.0"/>
      <point x="179" y="-10" type="curve" smooth="yes"/>
      <point x="268.5808383233533" y="-10.0"/>
      <point x="349.0" y="69.0"/>
      <point x="349" y="125" type="curve" smooth="yes"/>
      <point x="349" y="132"/>
      <point x="345" y="137"/>
      <point x="341" y="137" type="curve" smooth="yes"/>
      <point x="338" y="137"/>
      <point x="334" y="132"/>
      <point x="333" y="127" type="curve" smooth="yes"/>
      <point x="320.44587161829946" y="68.4140675520641"/>
      <point x="277.9714285714286" y="36.0"/>
      <point x="226" y="36" type="curve" smooth="yes"/>
      <point x="174.20454545454544" y="36.0"/>
      <point x="140.0" y="69.18518518518519"/>
      <point x="140" y="148" type="curve" smooth="yes"/>
      <point x="140.0" y="294.0"/>
      <point x="215.45323741007195" y="418.0"/>
    </contour>
  </outline>
</glyph>
<glyph name="d" format="2">
  <advance width="395"/>
  <unicode hex="0064"/>
  <outline>
    <contour>
      <point x="428" y="426" type="line"/>
      <point x="424" y="433"/>
      <point x="412" y="440"/>
      <point x="393" y="440" type="curve" smooth="yes"/>
      <point x="233.0" y="440.0"/>
      <point x="53.0" y="260.042492917847"/>
      <point x="53" y="77" type="curve" smooth="yes"/>
      <point x="53.0" y="18.701030927835056"/>
      <point x="80" y="-10"/>
      <point x="112" y="-10" type="curve" smooth="yes"/>
      <point x="171.0" y="-10.0"/>
      <point x="231.0" y="24.0"/>
      <point x="311" y="158" type="curve"/>
      <point x="302" y="161" type="line"/>
      <point x="294.9161673529766" y="123.55688458001907"/>
      <point x="271.0" y="82.34453781512605"/>
      <point x="271" y="41" type="curve" smooth="yes"/>
      <point x="271.0" y="10.596153846153847"/>
      <point x="288.0" y="-10.0"/>
      <point x="316" y="-10" type="curve" smooth="yes"/>
      <point x="374" y="-10.0"/>
      <point x="411.0" y="32"/>
      <point x="411" y="77" type="curve" smooth="yes"/>
      <point x="411.0" y="80.0"/>
      <point x="410.0" y="83.0"/>
      <point x="407" y="83" type="curve" smooth="yes"/>
      <point x="404" y="83"/>
      <point x="404" y="82"/>
      <point x="401" y="75" type="curve" smooth="yes"/>
      <point x="388.5089448102993" y="31.2813068360475"/>
      <point x="373.53846153846155" y="20.0"/>
      <point x="359" y="20" type="curve" smooth="yes"/>
      <point x="343" y="20"/>
      <point x="335" y="31"/>
      <point x="335" y="54" type="curve" smooth="yes"/>
      <point x="335" y="69"/>
      <point x="338" y="83"/>
      <point x="348" y="114" type="curve" smooth="yes"/>
      <point x="489" y="555" type="line" smooth="yes"/>
      <point x="498" y="582"/>
      <point x="490" y="614"/>
      <point x="490" y="646" type="curve" smooth="yes"/>
      <point x="490" y="668"/>
      <point x="496" y="680"/>
      <point x="509" y="680" type="curve" smooth="yes"/>
      <point x="530" y="680"/>
      <point x="540" y="651"/>
      <point x="565" y="651" type="curve" smooth="yes"/>
      <point x="589" y="651"/>
      <point x="606" y="663"/>
      <point x="606" y="680" type="curve" smooth="yes"/>
      <point x="606" y="702"/>
      <point x="587" y="715"/>
      <point x="562" y="715" type="curve" smooth="yes"/>
      <point x="505" y="715"/>
      <point x="475" y="680"/>
      <point x="450" y="602" type="curve" smooth="yes"/>
      <point x="342" y="266" type="line" smooth="yes"/>
      <point x="295.6454328297144" y="121.78579102577828"/>
      <point x="219" y="39"/>
      <point x="174" y="39" type="curve" smooth="yes"/>
      <point x="145" y="39"/>
      <point x="124.0" y="60.875"/>
      <point x="124" y="109" type="curve" smooth="yes"/>
      <point x="124.0" y="288.13475177304963"/>
      <point x="220.0" y="401.0"/>
      <point x="355" y="401" type="curve" smooth="yes"/>
      <point x="378" y="401"/>
      <point x="389" y="396"/>
      <point x="395" y="385" type="curve"/>
    </contour>
  </outline>
</glyph>
<glyph name="e" format="2">
  <advance width="329"/>
  <unicode hex="0065"/>
  <anchor x="314" y="528" name="center"/>
  <outline>
    <contour>
      <point x="94" y="191" type="curve"/>
      <point x="99" y="181" type="line"/>
      <point x="99.0" y="181.0"/>
      <point x="390.71007063134584" y="313.8550353156729"/>
      <point x="401" y="319" type="curve" smooth="yes"/>
      <point x="406" y="322"/>
      <point x="406.0" y="324"/>
      <point x="406" y="326" type="curve" smooth="yes"/>
      <point x="406.0" y="328.0"/>
      <point x="404" y="329.0"/>
      <point x="399" y="329" type="curve" smooth="yes"/>
      <point x="390" y="329.0"/>
      <point x="385" y="332"/>
      <point x="384" y="337" type="curve" smooth="yes"/>
      <point x="378.9957570172101" y="405.0577045659426"/>
      <point x="348" y="440"/>
      <point x="306" y="440" type="curve" smooth="yes"/>
      <point x="188" y="440"/>
      <point x="63" y="260"/>
      <point x="63" y="109" type="curve" smooth="yes"/>
      <point x="63" y="37"/>
      <point x="102.6923076923077" y="-15.0"/>
      <point x="171" y="-15" type="curve" smooth="yes"/>
      <point x="276.2325581395349" y="-15.0"/>
      <point x="352.0" y="78.0"/>
      <point x="352" y="155" type="curve" smooth="yes"/>
      <point x="352" y="158"/>
      <point x="351" y="161"/>
      <point x="348" y="161" type="curve" smooth="yes"/>
      <point x="347" y="161"/>
      <point x="345" y="160"/>
      <point x="344" y="155" type="curve" smooth="yes"/>
      <point x="330.4988778295643" y="77.8507304546532"/>
      <point x="274.0" y="31.0"/>
      <point x="215" y="31" type="curve" smooth="yes"/>
      <point x="166.0" y="31.0"/>
      <point x="128" y="76"/>
      <point x="128" y="152" type="curve" smooth="yes"/>
      <point x="128.0" y="295.0"/>
      <point x="198.0" y="407"/>
      <point x="268" y="407" type="curve" smooth="yes"/>
      <point x="300" y="407"/>
      <point x="320.0" y="375.84615384615387"/>
      <point x="320" y="332" type="curve" smooth="yes"/>
      <point x="320.0" y="313.6938775510204"/>
      <point x="318.37645308808897" y="303.29796338171883"/>
      <point x="316" y="293" type="curve"/>
      <point x="349" y="313" type="line"/>
      <point x="334.96606773621573" y="303.978186401853"/>
      <point x="94.0" y="191.0"/>
    </contour>
  </outline>
</glyph>
<glyph name="f" format="2">
  <advance width="217"/>
  <unicode hex="0066"/>
  <outline>
    <contour>
      <point x="221" y="406" type="line"/>
      <point x="319" y="406" type="line" smooth="yes"/>
      <point x="329" y="406"/>
      <point x="336" y="411"/>
      <point x="336" y="419" type="curve" smooth="yes"/>
      <point x="336" y="426"/>
      <point x="331" y="430"/>
      <point x="322" y="430" type="curve" smooth="yes"/>
      <point x="227" y="430" type="line"/>
    </contour>
    <contour>
      <point x="108" y="421" type="curve" smooth="yes"/>
      <point x="108" y="416"/>
      <point x="112" y="412"/>
      <point x="132" y="405" type="curve" smooth="yes"/>
      <point x="166" y="394"/>
      <point x="171" y="380"/>
      <point x="165" y="358" type="curve" smooth="yes"/>
      <point x="33" y="-100" type="line" smooth="yes"/>
      <point x="24" y="-132"/>
      <point x="20" y="-149"/>
      <point x="20" y="-168" type="curve" smooth="yes"/>
      <point x="20" y="-185"/>
      <point x="31" y="-194"/>
      <point x="49" y="-194" type="curve" smooth="yes"/>
      <point x="80" y="-194"/>
      <point x="109" y="-176"/>
      <point x="109" y="-150" type="curve" smooth="yes"/>
      <point x="109" y="-134"/>
      <point x="101" y="-122"/>
      <point x="101" y="-100" type="curve" smooth="yes"/>
      <point x="101" y="-87"/>
      <point x="103" y="-70"/>
      <point x="110" y="-46" type="curve" smooth="yes"/>
      <point x="239" y="407" type="line" smooth="yes"/>
      <point x="246" y="433"/>
      <point x="251" y="468"/>
      <point x="251" y="572" type="curve" smooth="yes"/>
      <point x="251.0" y="638.0377358490566"/>
      <point x="284.5813953488372" y="672.0"/>
      <point x="327" y="672" type="curve" smooth="yes"/>
      <point x="371.44444444444446" y="672.0"/>
      <point x="394.77777777777777" y="643.0"/>
      <point x="427" y="643" type="curve" smooth="yes"/>
      <point x="452.02941176470586" y="643.0"/>
      <point x="464.0" y="658.1111111111111"/>
      <point x="464" y="675" type="curve" smooth="yes"/>
      <point x="464.0" y="697.2222222222222"/>
      <point x="445.1290322580645" y="715.0"/>
      <point x="399" y="715" type="curve" smooth="yes"/>
      <point x="301" y="715"/>
      <point x="227" y="651"/>
      <point x="203" y="515" type="curve" smooth="yes"/>
      <point x="188" y="430" type="line"/>
      <point x="121" y="430" type="line" smooth="yes"/>
      <point x="113" y="430"/>
      <point x="108" y="426"/>
    </contour>
  </outline>
</glyph>
<glyph name="g" format="2">
  <advance width="424"/>
  <unicode hex="0067"/>
  <outline>
    <contour>
      <point x="388" y="19" type="curve" smooth="yes"/>
      <point x="408" y="105"/>
      <point x="446" y="288"/>
      <point x="454" y="361" type="curve" smooth="yes"/>
      <point x="456" y="380"/>
      <point x="482" y="390"/>
      <point x="482" y="403" type="curve" smooth="yes"/>
      <point x="482" y="427"/>
      <point x="452" y="440"/>
      <point x="395" y="440" type="curve" smooth="yes"/>
      <point x="228" y="440"/>
      <point x="64" y="246"/>
      <point x="64" y="71" type="curve" smooth="yes"/>
      <point x="64" y="17"/>
      <point x="91" y="-10"/>
      <point x="132" y="-10" type="curve" smooth="yes"/>
      <point x="217" y="-10"/>
      <point x="332" y="87"/>
      <point x="385" y="267" type="curve"/>
      <point x="377" y="269" type="line"/>
      <point x="377" y="219"/>
      <point x="355" y="125"/>
      <point x="313" y="-36" type="curve" smooth="yes"/>
      <point x="276" y="-176"/>
      <point x="217" y="-216"/>
      <point x="158" y="-216" type="curve" smooth="yes"/>
      <point x="105" y="-216"/>
      <point x="53" y="-151"/>
      <point x="11" y="-151" type="curve" smooth="yes"/>
      <point x="-9" y="-151"/>
      <point x="-22" y="-162"/>
      <point x="-22" y="-183" type="curve" smooth="yes"/>
      <point x="-22" y="-216"/>
      <point x="12" y="-245"/>
      <point x="89" y="-245" type="curve" smooth="yes"/>
      <point x="213" y="-245"/>
      <point x="340" y="-187"/>
    </contour>
    <contour>
      <point x="149" y="35"/>
      <point x="128" y="58"/>
      <point x="128" y="109" type="curve" smooth="yes"/>
      <point x="128" y="274"/>
      <point x="249" y="406"/>
      <point x="340" y="406.0" type="curve" smooth="yes"/>
      <point x="373" y="406"/>
      <point x="386" y="383"/>
      <point x="386" y="349" type="curve" smooth="yes"/>
      <point x="386" y="244"/>
      <point x="271" y="35"/>
      <point x="182" y="35" type="curve" smooth="yes"/>
    </contour>
  </outline>
</glyph>
<glyph name="h" format="2">
  <advance width="421"/>
  <unicode hex="0068"/>
  <outline>
    <contour>
      <point x="175" y="199" type="curve" smooth="yes"/>
      <point x="149" y="130"/>
      <point x="139" y="87"/>
      <point x="139" y="57" type="curve" smooth="yes"/>
      <point x="139" y="40"/>
      <point x="142" y="33"/>
      <point x="142" y="21" type="curve" smooth="yes"/>
      <point x="142" y="2"/>
      <point x="115" y="-10"/>
      <point x="86" y="-10" type="curve" smooth="yes"/>
      <point x="71" y="-10"/>
      <point x="60" y="2"/>
      <point x="60" y="20" type="curve" smooth="yes"/>
      <point x="60" y="29"/>
      <point x="61" y="39"/>
      <point x="71" y="68" type="curve" smooth="yes"/>
      <point x="207" y="484" type="line" smooth="yes"/>
      <point x="256" y="633"/>
      <point x="344.0" y="715.0"/>
      <point x="499" y="715" type="curve" smooth="yes"/>
      <point x="546" y="715"/>
      <point x="567.0" y="698.4473684210527"/>
      <point x="567" y="678" type="curve" smooth="yes"/>
      <point x="567.0" y="657.8125"/>
      <point x="553.0" y="644.0"/>
      <point x="520" y="644" type="curve" smooth="yes"/>
      <point x="471.3362831858407" y="644.0"/>
      <point x="448.5575221238938" y="683.0"/>
      <point x="403" y="683" type="curve" smooth="yes"/>
      <point x="358.5081967213115" y="683.0"/>
      <point x="316.9955313828242" y="649.9257172625831"/>
      <point x="285" y="552" type="curve" smooth="yes"/>
      <point x="230" y="383"/>
      <point x="219" y="341"/>
      <point x="207" y="276" type="curve"/>
      <point x="175" y="227" type="line"/>
      <point x="230" y="370"/>
      <point x="327.0" y="440"/>
      <point x="408" y="440" type="curve" smooth="yes"/>
      <point x="437" y="440"/>
      <point x="451" y="421"/>
      <point x="451" y="393" type="curve" smooth="yes"/>
      <point x="451" y="360"/>
      <point x="444" y="338"/>
      <point x="432" y="300" type="curve" smooth="yes"/>
      <point x="369" y="107" type="line" smooth="yes"/>
      <point x="363" y="88"/>
      <point x="356" y="71"/>
      <point x="356" y="54" type="curve" smooth="yes"/>
      <point x="356" y="34"/>
      <point x="368" y="22"/>
      <point x="383" y="22" type="curve" smooth="yes"/>
      <point x="403" y="22"/>
      <point x="421" y="38"/>
      <point x="430" y="75" type="curve" smooth="yes"/>
      <point x="431" y="80"/>
      <point x="433" y="80"/>
      <point x="435" y="80" type="curve" smooth="yes"/>
      <point x="436" y="80"/>
      <point x="438" y="78"/>
      <point x="438" y="74" type="curve" smooth="yes"/>
      <point x="438" y="33"/>
      <point x="399" y="-10"/>
      <point x="341" y="-10" type="curve" smooth="yes"/>
      <point x="309" y="-10"/>
      <point x="293" y="11"/>
      <point x="291" y="38" type="curve" smooth="yes"/>
      <point x="291" y="61"/>
      <point x="299" y="83"/>
      <point x="309" y="112" type="curve" smooth="yes"/>
      <point x="371" y="300" type="line" smooth="yes"/>
      <point x="379" y="324"/>
      <point x="386" y="348"/>
      <point x="386" y="369" type="curve" smooth="yes"/>
      <point x="386" y="385"/>
      <point x="376" y="399"/>
      <point x="349" y="399" type="curve" smooth="yes"/>
      <point x="286" y="399"/>
      <point x="216" y="309"/>
    </contour>
  </outline>
</glyph>
<glyph name="i" format="2">
  <advance width="242"/>
  <unicode hex="0069"/>
  <outline>
    <contour>
      <point x="164" y="63" type="curve" smooth="yes"/>
      <point x="163" y="85"/>
      <point x="170" y="106"/>
      <point x="177" y="125" type="curve" smooth="yes"/>
      <point x="245" y="311" type="line" smooth="yes"/>
      <point x="257" y="344"/>
      <point x="269.0" y="373.0"/>
      <point x="269" y="399" type="curve" smooth="yes"/>
      <point x="269.0" y="424.0"/>
      <point x="256" y="440.0"/>
      <point x="234" y="440" type="curve" smooth="yes"/>
      <point x="170" y="440.0"/>
      <point x="108.0" y="386.0"/>
      <point x="108" y="344" type="curve" smooth="yes"/>
      <point x="108" y="339"/>
      <point x="109" y="337"/>
      <point x="111" y="337" type="curve" smooth="yes"/>
      <point x="114" y="337"/>
      <point x="115" y="339"/>
      <point x="117" y="344" type="curve" smooth="yes"/>
      <point x="132" y="383"/>
      <point x="157.0" y="401.0"/>
      <point x="179" y="401" type="curve" smooth="yes"/>
      <point x="193.0" y="401.0"/>
      <point x="201.0" y="392"/>
      <point x="201" y="375" type="curve" smooth="yes"/>
      <point x="201.0" y="355"/>
      <point x="195" y="342"/>
      <point x="188" y="324" type="curve" smooth="yes"/>
      <point x="121" y="137" type="line" smooth="yes"/>
      <point x="105" y="93"/>
      <point x="90.0" y="65.0"/>
      <point x="90" y="32" type="curve" smooth="yes"/>
      <point x="90.0" y="8.0"/>
      <point x="108" y="-10.0"/>
      <point x="139" y="-10" type="curve" smooth="yes"/>
      <point x="196" y="-10.0"/>
      <point x="249.0" y="36.0"/>
      <point x="249" y="80" type="curve" smooth="yes"/>
      <point x="249" y="84"/>
      <point x="248" y="85"/>
      <point x="246" y="85" type="curve" smooth="yes"/>
      <point x="245" y="85"/>
      <point x="243" y="84"/>
      <point x="242" y="80" type="curve" smooth="yes"/>
      <point x="231" y="45"/>
      <point x="213.0" y="31.0"/>
      <point x="192" y="31" type="curve" smooth="yes"/>
      <point x="180" y="31.0"/>
      <point x="165" y="40"/>
    </contour>
    <contour>
      <point x="267" y="520" type="curve" smooth="yes"/>
      <point x="293.0" y="520.0"/>
      <point x="330.0" y="569.0"/>
      <point x="330" y="618" type="curve" smooth="yes"/>
      <point x="330" y="641"/>
      <point x="320" y="657"/>
      <point x="299" y="657" type="curve" smooth="yes"/>
      <point x="272.0" y="657.0"/>
      <point x="236" y="599"/>
      <point x="236" y="559" type="curve" smooth="yes"/>
      <point x="236" y="537"/>
      <point x="246" y="520"/>
    </contour>
  </outline>
</glyph>
<glyph name="j" format="2">
  <advance width="284"/>
  <unicode hex="006A"/>
  <outline>
    <contour>
      <point x="284" y="299" type="curve" smooth="yes"/>
      <point x="202" y="-35" type="line" smooth="yes"/>
      <point x="175" y="-146"/>
      <point x="97" y="-245"/>
      <point x="12" y="-245" type="curve" smooth="yes"/>
      <point x="-30" y="-245"/>
      <point x="-53" y="-218"/>
      <point x="-53" y="-188" type="curve" smooth="yes"/>
      <point x="-53" y="-152"/>
      <point x="-31" y="-122"/>
      <point x="8" y="-122" type="curve" smooth="yes"/>
      <point x="33" y="-122"/>
      <point x="53" y="-170"/>
      <point x="76" y="-170" type="curve" smooth="yes"/>
      <point x="91" y="-170"/>
      <point x="102" y="-160"/>
      <point x="102" y="-139" type="curve" smooth="yes"/>
      <point x="102" y="-113"/>
      <point x="102" y="-98"/>
      <point x="115" y="-49" type="curve" smooth="yes"/>
      <point x="209" y="317" type="line" smooth="yes"/>
      <point x="215" y="342"/>
      <point x="219" y="356"/>
      <point x="218" y="374" type="curve" smooth="yes"/>
      <point x="218" y="387"/>
      <point x="210" y="394"/>
      <point x="196" y="394" type="curve" smooth="yes"/>
      <point x="181" y="394"/>
      <point x="172" y="386"/>
      <point x="160" y="373" type="curve" smooth="yes"/>
      <point x="149" y="360"/>
      <point x="140" y="352"/>
      <point x="131" y="352" type="curve" smooth="yes"/>
      <point x="119" y="352"/>
      <point x="110" y="358"/>
      <point x="109" y="375" type="curve" smooth="yes"/>
      <point x="108" y="409"/>
      <point x="198" y="480"/>
      <point x="269" y="480" type="curve" smooth="yes"/>
      <point x="302" y="480"/>
      <point x="318" y="462"/>
      <point x="319" y="436" type="curve" smooth="yes"/>
      <point x="321" y="398"/>
      <point x="295" y="345"/>
    </contour>
    <contour>
      <point x="301" y="562" type="curve" smooth="yes"/>
      <point x="338" y="562"/>
      <point x="376" y="605"/>
      <point x="376" y="654" type="curve" smooth="yes"/>
      <point x="376" y="690"/>
      <point x="354" y="715"/>
      <point x="326" y="715" type="curve" smooth="yes"/>
      <point x="287" y="715"/>
      <point x="250" y="669"/>
      <point x="250" y="624" type="curve" smooth="yes"/>
      <point x="250" y="588"/>
      <point x="272" y="562"/>
    </contour>
  </outline>
</glyph>
<glyph name="k" format="2">
  <advance width="516"/>
  <unicode hex="006B"/>
  <outline>
    <contour>
      <point x="187" y="237" type="line"/>
      <point x="251" y="389"/>
      <point x="369" y="480"/>
      <point x="477" y="480" type="curve" smooth="yes"/>
      <point x="536" y="480"/>
      <point x="572" y="452"/>
      <point x="572" y="399" type="curve" smooth="yes"/>
      <point x="572" y="301"/>
      <point x="467" y="228"/>
      <point x="182" y="147" type="curve"/>
      <point x="180" y="176" type="line"/>
      <point x="419" y="253"/>
      <point x="485" y="328"/>
      <point x="485" y="386" type="curve" smooth="yes"/>
      <point x="485.0" y="413.02272727272725"/>
      <point x="468.08" y="427.0"/>
      <point x="438" y="427" type="curve" smooth="yes"/>
      <point x="352.9184549356223" y="427.0"/>
      <point x="242.58214131407465" y="322.5731654626939"/>
      <point x="202" y="184" type="curve" smooth="yes"/>
      <point x="195" y="159"/>
      <point x="192" y="141"/>
      <point x="192" y="128" type="curve" smooth="yes"/>
      <point x="192" y="90"/>
      <point x="210" y="74"/>
      <point x="210" y="50" type="curve" smooth="yes"/>
      <point x="210" y="11"/>
      <point x="174" y="-16"/>
      <point x="134" y="-16" type="curve" smooth="yes"/>
      <point x="105" y="-16"/>
      <point x="86" y="3"/>
      <point x="86" y="36" type="curve" smooth="yes"/>
      <point x="86" y="55"/>
      <point x="91" y="77"/>
      <point x="99" y="105" type="curve" smooth="yes"/>
      <point x="207" y="474" type="line" smooth="yes"/>
      <point x="249" y="616"/>
      <point x="371" y="716"/>
      <point x="541" y="716" type="curve" smooth="yes"/>
      <point x="607" y="716"/>
      <point x="639" y="689"/>
      <point x="639" y="661" type="curve" smooth="yes"/>
      <point x="639" y="630"/>
      <point x="615" y="602"/>
      <point x="571" y="602" type="curve" smooth="yes"/>
      <point x="524" y="602"/>
      <point x="461" y="642"/>
      <point x="415" y="642" type="curve" smooth="yes"/>
      <point x="363" y="642"/>
      <point x="319" y="596"/>
      <point x="302" y="538" type="curve" smooth="yes"/>
      <point x="256" y="382"/>
      <point x="229" y="339"/>
      <point x="229" y="288" type="curve"/>
    </contour>
    <contour>
      <point x="294" y="207" type="curve"/>
      <point x="349" y="233" type="line"/>
      <point x="387" y="109"/>
      <point x="413.0" y="80.0"/>
      <point x="453" y="80" type="curve" smooth="yes"/>
      <point x="480" y="80"/>
      <point x="487" y="109"/>
      <point x="506" y="109" type="curve" smooth="yes"/>
      <point x="517" y="109"/>
      <point x="523" y="102"/>
      <point x="523" y="87" type="curve" smooth="yes"/>
      <point x="523" y="30"/>
      <point x="468" y="-15"/>
      <point x="414" y="-15" type="curve" smooth="yes"/>
      <point x="360.0" y="-15"/>
      <point x="324" y="33"/>
    </contour>
  </outline>
</glyph>
<glyph name="l" format="2">
  <advance width="277"/>
  <unicode hex="006C"/>
  <outline>
    <contour>
      <point x="406" y="715" type="curve" smooth="yes"/>
      <point x="333" y="715"/>
      <point x="257" y="651"/>
      <point x="204" y="481" type="curve" smooth="yes"/>
      <point x="119" y="206" type="line" smooth="yes"/>
      <point x="100" y="143"/>
      <point x="84" y="106"/>
      <point x="84" y="53" type="curve" smooth="yes"/>
      <point x="84" y="12"/>
      <point x="107" y="-15"/>
      <point x="151" y="-15" type="curve" smooth="yes"/>
      <point x="229" y="-15"/>
      <point x="284" y="45"/>
      <point x="284" y="92" type="curve" smooth="yes"/>
      <point x="284" y="99"/>
      <point x="280" y="106"/>
      <point x="272" y="106" type="curve" smooth="yes"/>
      <point x="263" y="106"/>
      <point x="257" y="102"/>
      <point x="250" y="93" type="curve" smooth="yes"/>
      <point x="243.17374465623965" y="83.44324251873553"/>
      <point x="227.72727272727272" y="67.0"/>
      <point x="201" y="67" type="curve" smooth="yes"/>
      <point x="185.44444444444443" y="67.0"/>
      <point x="173.0" y="80.94"/>
      <point x="173" y="108" type="curve" smooth="yes"/>
      <point x="173.0" y="142.24418604651163"/>
      <point x="180.6657275949285" y="169.87237911271475"/>
      <point x="191" y="203" type="curve" smooth="yes"/>
      <point x="298" y="546" type="line" smooth="yes"/>
      <point x="305.01765019834403" y="568.4135154294049"/>
      <point x="306.0" y="591.8961038961039"/>
      <point x="306" y="603" type="curve" smooth="yes"/>
      <point x="306.0" y="626.2222222222222"/>
      <point x="318.9130434782609" y="641.0"/>
      <point x="339" y="641" type="curve" smooth="yes"/>
      <point x="361.96" y="641.0"/>
      <point x="376.84615384615387" y="608.0"/>
      <point x="421" y="608" type="curve" smooth="yes"/>
      <point x="459.19444444444446" y="608.0"/>
      <point x="476.0" y="633.3125"/>
      <point x="476" y="662" type="curve" smooth="yes"/>
      <point x="476.0" y="690.0"/>
      <point x="454" y="715.0"/>
    </contour>
  </outline>
</glyph>
<glyph name="o" format="2">
  <advance width="375"/>
  <unicode hex="006F"/>
  <outline>
    <contour>
      <point x="311" y="440" type="curve" smooth="yes"/>
      <point x="180" y="440"/>
      <point x="67" y="265"/>
      <point x="67" y="112" type="curve" smooth="yes"/>
      <point x="67" y="33"/>
      <point x="118" y="-10"/>
      <point x="174" y="-10" type="curve" smooth="yes"/>
      <point x="307" y="-10"/>
      <point x="423" y="156"/>
      <point x="423" y="321" type="curve" smooth="yes"/>
      <point x="423" y="401"/>
      <point x="370" y="440"/>
    </contour>
    <contour>
      <point x="352" y="97"/>
      <point x="264" y="21"/>
      <point x="203" y="21" type="curve" smooth="yes"/>
      <point x="165" y="21"/>
      <point x="135" y="62"/>
      <point x="135" y="139" type="curve" smooth="yes"/>
      <point x="135" y="320"/>
      <point x="228" y="414"/>
      <point x="285" y="414" type="curve" smooth="yes"/>
      <point x="321" y="414"/>
      <point x="352" y="375"/>
      <point x="352" y="297" type="curve" smooth="yes"/>
    </contour>
  </outline>
</glyph>
<glyph name="q" format="2">
  <advance width="481"/>
  <unicode hex="0071"/>
  <outline>
    <contour>
      <point x="172" y="74"/>
      <point x="151" y="96"/>
      <point x="151" y="144" type="curve" smooth="yes"/>
      <point x="151" y="284"/>
      <point x="267" y="404"/>
      <point x="357" y="404" type="curve" smooth="yes"/>
      <point x="400" y="404"/>
      <point x="425" y="394"/>
      <point x="425" y="380" type="curve" smooth="yes"/>
      <point x="425" y="278"/>
      <point x="303" y="74"/>
      <point x="206" y="74" type="curve" smooth="yes"/>
    </contour>
    <contour>
      <point x="410" y="262" type="line"/>
      <point x="308" y="-114" type="line" smooth="yes"/>
      <point x="301" y="-140"/>
      <point x="287" y="-161"/>
      <point x="259" y="-172" type="curve" smooth="yes"/>
      <point x="229" y="-183"/>
      <point x="216" y="-195"/>
      <point x="216" y="-206" type="curve" smooth="yes"/>
      <point x="216" y="-222"/>
      <point x="228" y="-231"/>
      <point x="244" y="-230" type="curve" smooth="yes"/>
      <point x="400" y="-225" type="line" smooth="yes"/>
      <point x="419" y="-224"/>
      <point x="432" y="-214"/>
      <point x="432" y="-199" type="curve" smooth="yes"/>
      <point x="432" y="-175"/>
      <point x="387" y="-167"/>
      <point x="387" y="-135" type="curve" smooth="yes"/>
      <point x="387" y="-119"/>
      <point x="390" y="-102"/>
      <point x="397" y="-74" type="curve" smooth="yes"/>
      <point x="488" y="311" type="line" smooth="yes"/>
      <point x="499" y="359"/>
      <point x="535" y="385"/>
      <point x="535" y="420" type="curve" smooth="yes"/>
      <point x="535" y="458"/>
      <point x="494" y="479"/>
      <point x="417" y="479" type="curve" smooth="yes"/>
      <point x="245" y="479"/>
      <point x="76" y="279"/>
      <point x="76" y="98" type="curve" smooth="yes"/>
      <point x="76" y="23"/>
      <point x="112" y="-15"/>
      <point x="169" y="-15" type="curve" smooth="yes"/>
      <point x="253" y="-15"/>
      <point x="374" y="75"/>
      <point x="440" y="301" type="curve"/>
    </contour>
  </outline>
</glyph>
<glyph name="r" format="2">
  <advance width="319"/>
  <unicode hex="0072"/>
  <outline>
    <contour>
      <point x="116" y="345" type="curve" smooth="yes"/>
      <point x="118" y="345.0"/>
      <point x="120" y="347"/>
      <point x="122" y="353" type="curve" smooth="yes"/>
      <point x="133.3013093312055" y="388.7874795488174"/>
      <point x="151.0" y="408.0"/>
      <point x="176" y="408" type="curve" smooth="yes"/>
      <point x="191.0" y="408.0"/>
      <point x="196.0" y="396.2903225806452"/>
      <point x="196" y="375" type="curve" smooth="yes"/>
      <point x="196.0" y="354.4719101123595"/>
      <point x="188" y="331"/>
      <point x="173" y="288" type="curve" smooth="yes"/>
      <point x="97" y="74" type="line" smooth="yes"/>
      <point x="90" y="54"/>
      <point x="84" y="35"/>
      <point x="84" y="16" type="curve" smooth="yes"/>
      <point x="84.0" y="1"/>
      <point x="91" y="-10"/>
      <point x="107" y="-10.0" type="curve" smooth="yes"/>
      <point x="143" y="-10.0"/>
      <point x="169.0" y="7.0"/>
      <point x="169" y="24" type="curve" smooth="yes"/>
      <point x="169.0" y="39"/>
      <point x="161.0" y="47.0"/>
      <point x="161" y="65" type="curve" smooth="yes"/>
      <point x="161.0" y="87.0"/>
      <point x="164" y="115"/>
      <point x="186" y="174" type="curve" smooth="yes"/>
      <point x="244.208793094883" y="329.8493492540415"/>
      <point x="291.0" y="386.0"/>
      <point x="326" y="386" type="curve" smooth="yes"/>
      <point x="353.1587301587302" y="386.0"/>
      <point x="358.49275362318843" y="362.0"/>
      <point x="385" y="362" type="curve" smooth="yes"/>
      <point x="412.6923076923077" y="362.0"/>
      <point x="430.0" y="378.6666666666667"/>
      <point x="430" y="402" type="curve" smooth="yes"/>
      <point x="430.0" y="427.3333333333333"/>
      <point x="417.7551020408163" y="440.0"/>
      <point x="390" y="440.0" type="curve" smooth="yes"/>
      <point x="324.9154228855721" y="440.0"/>
      <point x="254.7816150752532" y="386.9800915239748"/>
      <point x="179" y="195" type="curve"/>
      <point x="196" y="218"/>
      <point x="185.0" y="188.0"/>
      <point x="185" y="188" type="curve" smooth="yes"/>
      <point x="221.2789198002783" y="287.7670294507653"/>
      <point x="251.0" y="352.0"/>
      <point x="251" y="394" type="curve" smooth="yes"/>
      <point x="251" y="428"/>
      <point x="239" y="440"/>
      <point x="205" y="440.0" type="curve" smooth="yes"/>
      <point x="153.56603773584905" y="440.0"/>
      <point x="111.0" y="383.0"/>
      <point x="111" y="354" type="curve" smooth="yes"/>
      <point x="111" y="348"/>
      <point x="113" y="345.0"/>
    </contour>
  </outline>
</glyph>
<glyph name="s" format="2">
  <advance width="320"/>
  <unicode hex="0073"/>
  <outline>
    <contour>
      <point x="180" y="8" type="curve" smooth="yes"/>
      <point x="153.9" y="8.0"/>
      <point x="137.46666666666667" y="21.53333333333333"/>
      <point x="122" y="66" type="curve" smooth="yes"/>
      <point x="112.47220559539257" y="93.52473939108813"/>
      <point x="99.60526315789473" y="102.0"/>
      <point x="85" y="102" type="curve" smooth="yes"/>
      <point x="68.9047619047619" y="102.0"/>
      <point x="59.0" y="90.29032258064515"/>
      <point x="59" y="69" type="curve" smooth="yes"/>
      <point x="59.0" y="27.061728395061728"/>
      <point x="99.7843137254902" y="-10.0"/>
      <point x="163" y="-10.0" type="curve" smooth="yes"/>
      <point x="250.8156028368794" y="-10.0"/>
      <point x="314.0" y="48.0"/>
      <point x="314.0" y="112" type="curve" smooth="yes"/>
      <point x="314.0" y="152"/>
      <point x="296" y="178"/>
      <point x="243" y="232" type="curve" smooth="yes"/>
      <point x="201" y="274"/>
      <point x="188" y="300"/>
      <point x="188" y="336" type="curve" smooth="yes"/>
      <point x="188" y="388.0"/>
      <point x="216.0" y="422"/>
      <point x="255" y="422" type="curve" smooth="yes"/>
      <point x="286" y="422"/>
      <point x="305.5634135886443" y="407.0593531946695"/>
      <point x="314" y="378" type="curve" smooth="yes"/>
      <point x="320.42341842121164" y="356.5886052626278"/>
      <point x="336.7692307692308" y="347.0"/>
      <point x="351" y="347" type="curve" smooth="yes"/>
      <point x="368.4" y="347.0"/>
      <point x="380.0" y="358.7096774193548"/>
      <point x="380" y="380" type="curve" smooth="yes"/>
      <point x="380.0" y="410.0"/>
      <point x="345" y="440"/>
      <point x="283" y="440" type="curve" smooth="yes"/>
      <point x="189" y="440"/>
      <point x="130" y="374.0"/>
      <point x="130.0" y="310" type="curve" smooth="yes"/>
      <point x="130" y="263"/>
      <point x="148" y="233"/>
      <point x="198" y="181" type="curve" smooth="yes"/>
      <point x="247" y="131"/>
      <point x="255.0" y="111.0"/>
      <point x="255.0" y="79" type="curve" smooth="yes"/>
      <point x="255.0" y="35.23287671232877"/>
      <point x="220.9090909090909" y="8.0"/>
    </contour>
  </outline>
</glyph>
<glyph name="t" format="2">
  <advance width="252"/>
  <unicode hex="0074"/>
  <outline>
    <contour>
      <point x="156" y="397" type="line" smooth="yes"/>
      <point x="168" y="389"/>
      <point x="172" y="386"/>
      <point x="172" y="373" type="curve" smooth="yes"/>
      <point x="172" y="360"/>
      <point x="168" y="343"/>
      <point x="162" y="327" type="curve" smooth="yes"/>
      <point x="102" y="156" type="line" smooth="yes"/>
      <point x="82" y="98"/>
      <point x="77" y="77"/>
      <point x="77" y="51" type="curve" smooth="yes"/>
      <point x="77.0" y="18.0"/>
      <point x="98.2542372881356" y="-10.0"/>
      <point x="143" y="-10" type="curve" smooth="yes"/>
      <point x="213.99236641221376" y="-10.0"/>
      <point x="267.0" y="50.0"/>
      <point x="267" y="90" type="curve" smooth="yes"/>
      <point x="267" y="93"/>
      <point x="266" y="95"/>
      <point x="263" y="95" type="curve" smooth="yes"/>
      <point x="261" y="95"/>
      <point x="259" y="93"/>
      <point x="258" y="90" type="curve" smooth="yes"/>
      <point x="245.53565669410168" y="51.56827480681347"/>
      <point x="220.87878787878788" y="33.0"/>
      <point x="188" y="33" type="curve" smooth="yes"/>
      <point x="162.66666666666666" y="33.0"/>
      <point x="150.0" y="52.13333333333334"/>
      <point x="150" y="74" type="curve" smooth="yes"/>
      <point x="150.0" y="90.125"/>
      <point x="152.78991711494" y="113.10092524516622"/>
      <point x="169" y="160" type="curve" smooth="yes"/>
      <point x="272" y="458" type="line" smooth="yes"/>
      <point x="279" y="479"/>
      <point x="282" y="494"/>
      <point x="282" y="506" type="curve" smooth="yes"/>
      <point x="282" y="511"/>
      <point x="279" y="516"/>
      <point x="275" y="516" type="curve" smooth="yes"/>
      <point x="270" y="516"/>
      <point x="264" y="512"/>
      <point x="257" y="504" type="curve" smooth="yes"/>
      <point x="206" y="445" type="line" smooth="yes"/>
      <point x="197" y="434"/>
      <point x="183" y="430"/>
      <point x="171" y="430" type="curve" smooth="yes"/>
      <point x="132" y="430" type="line" smooth="yes"/>
      <point x="127" y="430"/>
      <point x="123" y="427"/>
      <point x="123" y="424" type="curve" smooth="yes"/>
      <point x="123" y="419"/>
      <point x="127" y="415"/>
      <point x="131" y="413" type="curve" smooth="yes"/>
    </contour>
    <contour>
      <point x="194" y="410" type="line"/>
      <point x="194" y="410"/>
      <point x="314" y="410"/>
      <point x="339" y="410" type="curve" smooth="yes"/>
      <point x="349" y="410"/>
      <point x="356" y="414"/>
      <point x="357" y="421" type="curve" smooth="yes"/>
      <point x="358" y="427"/>
      <point x="354" y="430"/>
      <point x="347" y="430" type="curve" smooth="yes"/>
      <point x="329" y="430"/>
      <point x="202" y="430"/>
      <point x="202" y="430" type="curve"/>
    </contour>
  </outline>
</glyph>
<glyph name="v" format="2">
  <advance width="515"/>
  <unicode hex="0076"/>
  <outline>
    <contour>
      <point x="402" y="-15"/>
      <point x="561" y="179"/>
      <point x="561" y="404" type="curve" smooth="yes"/>
      <point x="561" y="455"/>
      <point x="535" y="480"/>
      <point x="498" y="480" type="curve" smooth="yes"/>
      <point x="464" y="480"/>
      <point x="438" y="453"/>
      <point x="438" y="420" type="curve" smooth="yes"/>
      <point x="438" y="395"/>
      <point x="450" y="376"/>
      <point x="469" y="357" type="curve" smooth="yes"/>
      <point x="483" y="343"/>
      <point x="491" y="330"/>
      <point x="491" y="315" type="curve" smooth="yes"/>
      <point x="491" y="178"/>
      <point x="399" y="68"/>
      <point x="323" y="68" type="curve" smooth="yes"/>
      <point x="273" y="68"/>
      <point x="251" y="98"/>
      <point x="251" y="142" type="curve" smooth="yes"/>
      <point x="251" y="208"/>
      <point x="276" y="264"/>
      <point x="354" y="393" type="curve" smooth="yes"/>
      <point x="376" y="431"/>
      <point x="391" y="444"/>
      <point x="391" y="461" type="curve" smooth="yes"/>
      <point x="391" y="474"/>
      <point x="385" y="480"/>
      <point x="374" y="480" type="curve" smooth="yes"/>
      <point x="356" y="480"/>
      <point x="344" y="463"/>
      <point x="322" y="463" type="curve" smooth="yes"/>
      <point x="296" y="463"/>
      <point x="244" y="471"/>
      <point x="222" y="471" type="curve" smooth="yes"/>
      <point x="151" y="471"/>
      <point x="104" y="401"/>
      <point x="104" y="331" type="curve" smooth="yes"/>
      <point x="104" y="296"/>
      <point x="120" y="276"/>
      <point x="144" y="276" type="curve" smooth="yes"/>
      <point x="164" y="276"/>
      <point x="183" y="289"/>
      <point x="183" y="314" type="curve" smooth="yes"/>
      <point x="183" y="327"/>
      <point x="175" y="340"/>
      <point x="158" y="347" type="curve" smooth="yes"/>
      <point x="146" y="352"/>
      <point x="142" y="360"/>
      <point x="142" y="367" type="curve" smooth="yes"/>
      <point x="142" y="378"/>
      <point x="151" y="387"/>
      <point x="171" y="387" type="curve" smooth="yes"/>
      <point x="209" y="387"/>
      <point x="274" y="374"/>
      <point x="319" y="374" type="curve" smooth="yes"/>
      <point x="348" y="374"/>
      <point x="355" y="411"/>
      <point x="339" y="427" type="curve"/>
      <point x="339" y="408"/>
      <point x="326" y="393"/>
      <point x="280" y="332" type="curve" smooth="yes"/>
      <point x="193" y="216"/>
      <point x="160" y="146"/>
      <point x="160" y="87" type="curve" smooth="yes"/>
      <point x="160" y="26"/>
      <point x="199" y="-15"/>
      <point x="264" y="-15" type="curve" smooth="yes"/>
    </contour>
  </outline>
</glyph>
<glyph name="w" format="2">
  <advance width="720"/>
  <unicode hex="0077"/>
  <outline>
    <contour>
      <point x="519" y="480" type="curve" smooth="yes"/>
      <point x="484" y="480"/>
      <point x="435" y="399"/>
      <point x="435" y="171" type="curve" smooth="yes"/>
      <point x="435" y="53"/>
      <point x="467" y="-15"/>
      <point x="528" y="-15" type="curve" smooth="yes"/>
      <point x="628" y="-15"/>
      <point x="764" y="184"/>
      <point x="764" y="399" type="curve" smooth="yes"/>
      <point x="764" y="459"/>
      <point x="739" y="481"/>
      <point x="704" y="481" type="curve" smooth="yes"/>
      <point x="667" y="481"/>
      <point x="637" y="456"/>
      <point x="637" y="425" type="curve" smooth="yes"/>
      <point x="637" y="398"/>
      <point x="644" y="385"/>
      <point x="669" y="354" type="curve" smooth="yes"/>
      <point x="683" y="336"/>
      <point x="697" y="308"/>
      <point x="697" y="276" type="curve" smooth="yes"/>
      <point x="697" y="166"/>
      <point x="621" y="76"/>
      <point x="559" y="76" type="curve" smooth="yes"/>
      <point x="511" y="76"/>
      <point x="481" y="109"/>
      <point x="468" y="209" type="curve"/>
      <point x="412" y="101"/>
      <point x="365" y="68"/>
      <point x="318" y="68" type="curve" smooth="yes"/>
      <point x="273" y="68"/>
      <point x="251" y="98"/>
      <point x="251" y="142" type="curve" smooth="yes"/>
      <point x="251" y="203"/>
      <point x="273" y="259"/>
      <point x="354" y="393" type="curve" smooth="yes"/>
      <point x="377" y="431"/>
      <point x="391" y="444"/>
      <point x="391" y="461" type="curve" smooth="yes"/>
      <point x="391" y="474"/>
      <point x="385" y="480"/>
      <point x="374" y="480" type="curve" smooth="yes"/>
      <point x="356" y="480"/>
      <point x="344" y="463"/>
      <point x="322" y="463" type="curve" smooth="yes"/>
      <point x="296" y="463"/>
      <point x="244" y="471"/>
      <point x="222" y="471" type="curve" smooth="yes"/>
      <point x="151" y="471"/>
      <point x="104" y="401"/>
      <point x="104" y="331" type="curve" smooth="yes"/>
      <point x="104" y="296"/>
      <point x="120" y="276"/>
      <point x="144" y="276" type="curve" smooth="yes"/>
      <point x="164" y="276"/>
      <point x="183" y="289"/>
      <point x="183" y="314" type="curve" smooth="yes"/>
      <point x="183" y="327"/>
      <point x="175" y="340"/>
      <point x="158" y="347" type="curve" smooth="yes"/>
      <point x="146" y="352"/>
      <point x="142" y="360"/>
      <point x="142" y="367" type="curve" smooth="yes"/>
      <point x="142" y="378"/>
      <point x="151" y="387"/>
      <point x="171" y="387" type="curve" smooth="yes"/>
      <point x="209" y="387"/>
      <point x="274" y="374"/>
      <point x="319" y="374" type="curve" smooth="yes"/>
      <point x="348" y="374"/>
      <point x="355" y="411"/>
      <point x="339" y="427" type="curve"/>
      <point x="339" y="408"/>
      <point x="326" y="393"/>
      <point x="280" y="332" type="curve" smooth="yes"/>
      <point x="189" y="210"/>
      <point x="160" y="140"/>
      <point x="160" y="87" type="curve" smooth="yes"/>
      <point x="160" y="26"/>
      <point x="199" y="-15"/>
      <point x="264" y="-15" type="curve" smooth="yes"/>
      <point x="404" y="-15"/>
      <point x="551" y="216"/>
      <point x="551" y="425" type="curve" smooth="yes"/>
      <point x="551" y="463"/>
      <point x="538" y="480"/>
    </contour>
  </outline>
</glyph>
<glyph name="x" format="2">
  <advance width="535"/>
  <unicode hex="0078"/>
  <outline>
    <contour>
      <point x="169" y="56" type="curve" smooth="yes"/>
      <point x="152" y="56"/>
      <point x="142" y="66"/>
      <point x="142" y="78" type="curve" smooth="yes"/>
      <point x="142" y="91"/>
      <point x="145" y="104"/>
      <point x="145" y="114" type="curve" smooth="yes"/>
      <point x="145" y="138"/>
      <point x="127" y="153"/>
      <point x="101" y="153" type="curve" smooth="yes"/>
      <point x="71" y="153"/>
      <point x="46" y="125"/>
      <point x="46" y="77" type="curve" smooth="yes"/>
      <point x="46" y="31"/>
      <point x="78" y="-16"/>
      <point x="141" y="-16" type="curve" smooth="yes"/>
      <point x="200.4355828220859" y="-16.0"/>
      <point x="267.74447698867607" y="16.177882485305673"/>
      <point x="314" y="165" type="curve"/>
      <point x="295" y="166" type="line"/>
      <point x="295" y="38"/>
      <point x="328" y="-15"/>
      <point x="400" y="-15" type="curve" smooth="yes"/>
      <point x="457" y="-15"/>
      <point x="527" y="57"/>
      <point x="527" y="112" type="curve" smooth="yes"/>
      <point x="527" y="126"/>
      <point x="518" y="136"/>
      <point x="511" y="136" type="curve" smooth="yes"/>
      <point x="497" y="136"/>
      <point x="489" y="122"/>
      <point x="480" y="109" type="curve" smooth="yes"/>
      <point x="467" y="86"/>
      <point x="449" y="65"/>
      <point x="420" y="65" type="curve" smooth="yes"/>
      <point x="386" y="65"/>
      <point x="356" y="93"/>
      <point x="356" y="192" type="curve" smooth="yes"/>
      <point x="356.0" y="310.0"/>
      <point x="420.8387096774194" y="412.0"/>
      <point x="490" y="412" type="curve" smooth="yes"/>
      <point x="507" y="412"/>
      <point x="517" y="402"/>
      <point x="517" y="390" type="curve" smooth="yes"/>
      <point x="517" y="376"/>
      <point x="512" y="361"/>
      <point x="512" y="350" type="curve" smooth="yes"/>
      <point x="512" y="326"/>
      <point x="530" y="311"/>
      <point x="556" y="311" type="curve" smooth="yes"/>
      <point x="586" y="311"/>
      <point x="611" y="339"/>
      <point x="611" y="387" type="curve" smooth="yes"/>
      <point x="611" y="433"/>
      <point x="579" y="480"/>
      <point x="516" y="480" type="curve" smooth="yes"/>
      <point x="440.23489932885906" y="480.0"/>
      <point x="377.04000977534514" y="425.2320566970019"/>
      <point x="357" y="309" type="curve"/>
      <point x="364" y="311" type="line"/>
      <point x="365" y="439"/>
      <point x="335" y="480"/>
      <point x="277" y="480" type="curve" smooth="yes"/>
      <point x="194" y="480"/>
      <point x="130" y="407"/>
      <point x="130" y="352" type="curve" smooth="yes"/>
      <point x="130" y="338"/>
      <point x="139" y="328"/>
      <point x="146" y="328" type="curve" smooth="yes"/>
      <point x="160" y="328"/>
      <point x="168" y="342"/>
      <point x="177" y="355" type="curve" smooth="yes"/>
      <point x="192" y="380"/>
      <point x="212" y="401"/>
      <point x="242" y="401" type="curve" smooth="yes"/>
      <point x="277" y="401"/>
      <point x="305" y="374"/>
      <point x="305" y="283" type="curve" smooth="yes"/>
      <point x="305.0" y="146.0"/>
      <point x="237.0" y="56.0"/>
    </contour>
  </outline>
</glyph>
<glyph name="z" format="2">
  <advance width="370"/>
  <unicode hex="007A"/>
  <outline>
    <contour>
      <point x="140" y="73" type="curve"/>
      <point x="126" y="82" type="line"/>
      <point x="156.02469135802468" y="82.0"/>
      <point x="239" y="61"/>
      <point x="278" y="61" type="curve" smooth="yes"/>
      <point x="329.0" y="61.0"/>
      <point x="355" y="84.0"/>
      <point x="366" y="132" type="curve" smooth="yes"/>
      <point x="367" y="137"/>
      <point x="369" y="139"/>
      <point x="371" y="139" type="curve" smooth="yes"/>
      <point x="373" y="139"/>
      <point x="375" y="137"/>
      <point x="375" y="132" type="curve" smooth="yes"/>
      <point x="375" y="47"/>
      <point x="321" y="-10"/>
      <point x="266" y="-10.0" type="curve" smooth="yes"/>
      <point x="200" y="-10.0"/>
      <point x="157.3206106870229" y="66.0"/>
      <point x="137" y="66" type="curve" smooth="yes"/>
      <point x="117.0" y="66.0"/>
      <point x="109.97435897435898" y="-10.0"/>
      <point x="69" y="-10" type="curve" smooth="yes"/>
      <point x="49.5" y="-10.0"/>
      <point x="36.0" y="1.8857142857142861"/>
      <point x="36" y="22" type="curve" smooth="yes"/>
      <point x="36.0" y="42.16326530612245"/>
      <point x="52.98465104980795" y="58.17694759674296"/>
      <point x="76" y="74" type="curve" smooth="yes"/>
      <point x="98.39799855153385" y="91.73174885329762"/>
      <point x="175.80042312895318" y="138.68607696767418"/>
      <point x="252" y="204" type="curve" smooth="yes"/>
      <point x="338.76758103197784" y="278.1139754648144"/>
      <point x="365.0" y="322.32748538011697"/>
      <point x="365" y="355" type="curve"/>
      <point x="386" y="349" type="line"/>
      <point x="339.4976303317535" y="349.0"/>
      <point x="217" y="371.0"/>
      <point x="178" y="371.0" type="curve" smooth="yes"/>
      <point x="142" y="371.0"/>
      <point x="131.0" y="357.0"/>
      <point x="131" y="342" type="curve" smooth="yes"/>
      <point x="131.0" y="323.0"/>
      <point x="141.52188568706413" y="310.73905715646794"/>
      <point x="157" y="303" type="curve" smooth="yes"/>
      <point x="172" y="296"/>
      <point x="180" y="291"/>
      <point x="180" y="276" type="curve" smooth="yes"/>
      <point x="180" y="263"/>
      <point x="168" y="254"/>
      <point x="152" y="254" type="curve" smooth="yes"/>
      <point x="128" y="254"/>
      <point x="112" y="272"/>
      <point x="112" y="304" type="curve" smooth="yes"/>
      <point x="112.0" y="379.0"/>
      <point x="163.0" y="440"/>
      <point x="236" y="440.0" type="curve" smooth="yes"/>
      <point x="306" y="440"/>
      <point x="333" y="363.0"/>
      <point x="359" y="363.0" type="curve" smooth="yes"/>
      <point x="374" y="363.0"/>
      <point x="378" y="374"/>
      <point x="382" y="401" type="curve" smooth="yes"/>
      <point x="386" y="426"/>
      <point x="397" y="440"/>
      <point x="419" y="440.0" type="curve" smooth="yes"/>
      <point x="439.0" y="440.0"/>
      <point x="449.0" y="425.0"/>
      <point x="449.0" y="406" type="curve" smooth="yes"/>
      <point x="449" y="378"/>
      <point x="435" y="355"/>
      <point x="391" y="313" type="curve" smooth="yes"/>
      <point x="363" y="286"/>
      <point x="311.9011989053937" y="238.37898310242286"/>
      <point x="259" y="195" type="curve" smooth="yes"/>
      <point x="165.6437124149321" y="118.69918803143489"/>
      <point x="146.90802448953738" y="98.90509183576518"/>
    </contour>
  </outline>
</glyph>
<glyph name="currency" format="2">
  <advance width="494"/>
  <unicode hex="00A4"/>
  <outline>
    <contour>
      <point x="287" y="153" type="curve" smooth="yes"/>
      <point x="193" y="153"/>
      <point x="137" y="233"/>
      <point x="162" y="326" type="curve" smooth="yes"/>
      <point x="188" y="420"/>
      <point x="285" y="497"/>
      <point x="379" y="497" type="curve" smooth="yes"/>
      <point x="475" y="497"/>
      <point x="531" y="420"/>
      <point x="505" y="326" type="curve" smooth="yes"/>
      <point x="480" y="233"/>
      <point x="383" y="153"/>
    </contour>
    <contour>
      <point x="305" y="215" type="curve" smooth="yes"/>
      <point x="364" y="215"/>
      <point x="428" y="264"/>
      <point x="444" y="326" type="curve" smooth="yes"/>
      <point x="461" y="388"/>
      <point x="423" y="436"/>
      <point x="364" y="436" type="curve" smooth="yes"/>
      <point x="302" y="436"/>
      <point x="242" y="388"/>
      <point x="225" y="326" type="curve" smooth="yes"/>
      <point x="209" y="264"/>
      <point x="243" y="215"/>
    </contour>
    <contour>
      <point x="197" y="517" type="curve" smooth="yes"/>
      <point x="210" y="527"/>
      <point x="223" y="528"/>
      <point x="233" y="517" type="curve" smooth="yes"/>
      <point x="288" y="441" type="line"/>
      <point x="241" y="404" type="line"/>
      <point x="186" y="479" type="line" smooth="yes"/>
      <point x="178" y="490"/>
      <point x="182" y="505"/>
    </contour>
    <contour>
      <point x="461" y="398" type="line"/>
      <point x="433" y="434" type="line"/>
      <point x="537" y="516" type="line" smooth="yes"/>
      <point x="551" y="527"/>
      <point x="566" y="527"/>
      <point x="575" y="516" type="curve" smooth="yes"/>
      <point x="582" y="505"/>
      <point x="579" y="491"/>
      <point x="565" y="480" type="curve" smooth="yes"/>
    </contour>
    <contour>
      <point x="426" y="251" type="line"/>
      <point x="483" y="174" type="line" smooth="yes"/>
      <point x="491" y="163"/>
      <point x="487" y="149"/>
      <point x="474" y="138" type="curve" smooth="yes"/>
      <point x="459" y="127"/>
      <point x="444" y="127"/>
      <point x="436" y="138" type="curve" smooth="yes"/>
      <point x="380" y="214" type="line"/>
    </contour>
    <contour>
      <point x="95" y="137" type="curve" smooth="yes"/>
      <point x="87" y="149"/>
      <point x="91" y="164"/>
      <point x="105" y="175" type="curve" smooth="yes"/>
      <point x="204" y="253" type="line"/>
      <point x="231" y="217" type="line"/>
      <point x="131" y="137" type="line" smooth="yes"/>
      <point x="116" y="126"/>
      <point x="103" y="127"/>
    </contour>
  </outline>
</glyph>
<glyph name="copyright" format="2">
  <advance width="752"/>
  <unicode hex="00A9"/>
  <outline>
    <contour>
      <point x="382" y="-15" type="curve" smooth="yes"/>
      <point x="245" y="-15"/>
      <point x="150" y="82"/>
      <point x="150" y="221" type="curve" smooth="yes"/>
      <point x="150" y="466"/>
      <point x="325" y="649"/>
      <point x="560" y="649" type="curve" smooth="yes"/>
      <point x="699" y="649"/>
      <point x="795" y="551"/>
      <point x="795" y="409" type="curve" smooth="yes"/>
      <point x="795" y="166"/>
      <point x="618" y="-15"/>
    </contour>
    <contour>
      <point x="398" y="37" type="curve" smooth="yes"/>
      <point x="597" y="37"/>
      <point x="747" y="189"/>
      <point x="747" y="392" type="curve" smooth="yes"/>
      <point x="747" y="514"/>
      <point x="665" y="600"/>
      <point x="549" y="600" type="curve" smooth="yes"/>
      <point x="351" y="600"/>
      <point x="204" y="445"/>
      <point x="204" y="235" type="curve" smooth="yes"/>
      <point x="204" y="118"/>
      <point x="284" y="37"/>
    </contour>
    <contour>
      <point x="595" y="227" type="curve" smooth="yes"/>
      <point x="595" y="234"/>
      <point x="590" y="238"/>
      <point x="583" y="238" type="curve" smooth="yes"/>
      <point x="577" y="238"/>
      <point x="569" y="233"/>
      <point x="560" y="219" type="curve" smooth="yes"/>
      <point x="530" y="179"/>
      <point x="498" y="163"/>
      <point x="449" y="163" type="curve" smooth="yes"/>
      <point x="393" y="163"/>
      <point x="355" y="208"/>
      <point x="355" y="276" type="curve" smooth="yes"/>
      <point x="355" y="374"/>
      <point x="438" y="483"/>
      <point x="523" y="483" type="curve" smooth="yes"/>
      <point x="566" y="483"/>
      <point x="581" y="466"/>
      <point x="603" y="428" type="curve" smooth="yes"/>
      <point x="617" y="403" type="line" smooth="yes"/>
      <point x="622" y="394"/>
      <point x="626" y="388"/>
      <point x="634" y="388" type="curve" smooth="yes"/>
      <point x="641" y="388"/>
      <point x="647" y="393"/>
      <point x="647" y="404" type="curve" smooth="yes"/>
      <point x="644" y="502" type="line" smooth="yes"/>
      <point x="644" y="513"/>
      <point x="638" y="520"/>
      <point x="630" y="520" type="curve" smooth="yes"/>
      <point x="620" y="520"/>
      <point x="612" y="505"/>
      <point x="601" y="505" type="curve" smooth="yes"/>
      <point x="588" y="505"/>
      <point x="564" y="522"/>
      <point x="529" y="522" type="curve" smooth="yes"/>
      <point x="409" y="522"/>
      <point x="294" y="379"/>
      <point x="294" y="249" type="curve" smooth="yes"/>
      <point x="294" y="167"/>
      <point x="343" y="112"/>
      <point x="419" y="112" type="curve" smooth="yes"/>
      <point x="502" y="112"/>
      <point x="567" y="153"/>
      <point x="589" y="202" type="curve" smooth="yes"/>
      <point x="593" y="212"/>
      <point x="595" y="218"/>
    </contour>
  </outline>
</glyph>
<glyph name="multiply" format="2">
  <advance width="433"/>
  <unicode hex="00D7"/>
  <outline>
    <contour>
      <point x="106" y="152" type="curve" smooth="yes"/>
      <point x="114" y="139"/>
      <point x="137" y="141"/>
      <point x="155" y="155" type="curve" smooth="yes"/>
      <point x="210" y="198"/>
      <point x="267" y="259"/>
      <point x="308" y="292" type="curve" smooth="yes"/>
      <point x="351" y="326"/>
      <point x="420" y="365"/>
      <point x="472" y="405" type="curve" smooth="yes"/>
      <point x="492" y="421"/>
      <point x="497" y="441"/>
      <point x="487" y="453" type="curve" smooth="yes"/>
      <point x="478" y="467"/>
      <point x="456" y="467"/>
      <point x="438" y="452" type="curve" smooth="yes"/>
      <point x="386" y="412"/>
      <point x="331" y="352"/>
      <point x="288" y="319" type="curve" smooth="yes"/>
      <point x="241" y="281"/>
      <point x="175" y="245"/>
      <point x="121" y="202" type="curve" smooth="yes"/>
      <point x="105" y="189"/>
      <point x="95" y="165"/>
    </contour>
    <contour>
      <point x="411" y="154" type="curve" smooth="yes"/>
      <point x="427" y="167"/>
      <point x="431" y="189"/>
      <point x="421" y="202" type="curve" smooth="yes"/>
      <point x="389" y="247"/>
      <point x="339" y="287"/>
      <point x="315" y="320" type="curve" smooth="yes"/>
      <point x="291" y="353"/>
      <point x="268" y="412"/>
      <point x="237" y="453" type="curve" smooth="yes"/>
      <point x="226" y="468"/>
      <point x="206" y="468"/>
      <point x="190" y="456" type="curve" smooth="yes"/>
      <point x="173" y="442"/>
      <point x="168" y="421"/>
      <point x="179" y="406" type="curve" smooth="yes"/>
      <point x="208" y="366"/>
      <point x="257" y="326"/>
      <point x="282" y="293" type="curve" smooth="yes"/>
      <point x="308" y="255"/>
      <point x="330" y="199"/>
      <point x="361" y="156" type="curve" smooth="yes"/>
      <point x="371" y="144"/>
      <point x="394" y="141"/>
    </contour>
  </outline>
</glyph>
<glyph name="germandbls" format="2">
  <advance width="557"/>
  <unicode hex="00DF"/>
  <outline>
    <contour>
      <point x="217" y="477" type="curve" smooth="yes"/>
      <point x="214" y="465" type="line"/>
      <point x="159" y="465" type="line" smooth="yes"/>
      <point x="141" y="465"/>
      <point x="129" y="455"/>
      <point x="129" y="441" type="curve" smooth="yes"/>
      <point x="129" y="431"/>
      <point x="137" y="421"/>
      <point x="157" y="414" type="curve" smooth="yes"/>
      <point x="187" y="403"/>
      <point x="198" y="375"/>
      <point x="188" y="343" type="curve" smooth="yes"/>
      <point x="51" y="-101" type="line" smooth="yes"/>
      <point x="41" y="-133"/>
      <point x="37" y="-156"/>
      <point x="38" y="-187" type="curve" smooth="yes"/>
      <point x="40" y="-215"/>
      <point x="57" y="-230"/>
      <point x="87" y="-230" type="curve" smooth="yes"/>
      <point x="119" y="-230"/>
      <point x="151" y="-203"/>
      <point x="151" y="-168" type="curve" smooth="yes"/>
      <point x="151" y="-131"/>
      <point x="139" y="-126"/>
      <point x="139" y="-93" type="curve" smooth="yes"/>
      <point x="139" y="-81"/>
      <point x="140" y="-65"/>
      <point x="146" y="-43" type="curve" smooth="yes"/>
      <point x="146" y="-43"/>
      <point x="283" y="449"/>
      <point x="297" y="494" type="curve" smooth="yes"/>
      <point x="337.13072482639615" y="620.2649634781733"/>
      <point x="404.06508875739644" y="675.0"/>
      <point x="463" y="675" type="curve" smooth="yes"/>
      <point x="507.6470588235294" y="675.0"/>
      <point x="532" y="646"/>
      <point x="532" y="599" type="curve" smooth="yes"/>
      <point x="532.0" y="554"/>
      <point x="507" y="522"/>
      <point x="442" y="475" type="curve" smooth="yes"/>
      <point x="360.98768685837445" y="416.0819540788178"/>
      <point x="338.0" y="373.98507462686564"/>
      <point x="338" y="331" type="curve" smooth="yes"/>
      <point x="338.0" y="293.8985507246377"/>
      <point x="361.9768545374863" y="253.01995298492557"/>
      <point x="420" y="203" type="curve" smooth="yes"/>
      <point x="484" y="147"/>
      <point x="504" y="121"/>
      <point x="504" y="95" type="curve" smooth="yes"/>
      <point x="504.0" y="61.0"/>
      <point x="476.66037735849056" y="44.0"/>
      <point x="441" y="44" type="curve" smooth="yes"/>
      <point x="402.5263157894737" y="44.0"/>
      <point x="381.0926898541526" y="67.34500289963785"/>
      <point x="356" y="97" type="curve" smooth="yes"/>
      <point x="333" y="126"/>
      <point x="317" y="134"/>
      <point x="296" y="134" type="curve" smooth="yes"/>
      <point x="275" y="134"/>
      <point x="262" y="118"/>
      <point x="262" y="88" type="curve" smooth="yes"/>
      <point x="262.0" y="32.623655913978496"/>
      <point x="314.74626865671644" y="-15.0"/>
      <point x="386" y="-15" type="curve" smooth="yes"/>
      <point x="494.819209039548" y="-15.0"/>
      <point x="573.0" y="47.0"/>
      <point x="573" y="123" type="curve" smooth="yes"/>
      <point x="573" y="169"/>
      <point x="547" y="211"/>
      <point x="488" y="264" type="curve" smooth="yes"/>
      <point x="429.31450857149423" y="315.9510907727756"/>
      <point x="416" y="339"/>
      <point x="416" y="369" type="curve" smooth="yes"/>
      <point x="416.0" y="393.89830508474574"/>
      <point x="429.9672918172405" y="423.03376180732215"/>
      <point x="516" y="482" type="curve" smooth="yes"/>
      <point x="611.3004280815751" y="546.9299619896447"/>
      <point x="637.0" y="579.0"/>
      <point x="637.0" y="625" type="curve" smooth="yes"/>
      <point x="637.0" y="675.0"/>
      <point x="583.0" y="715.0"/>
      <point x="492" y="715" type="curve" smooth="yes"/>
      <point x="368.65441176470586" y="715.0"/>
      <point x="251.78773539585998" y="616.1509415834399"/>
    </contour>
  </outline>
</glyph>
<glyph name="dotlessi" format="2">
  <advance width="309"/>
  <unicode hex="0131"/>
  <anchor x="277" y="513" name="center"/>
  <outline>
    <contour>
      <point x="210" y="90" type="curve" smooth="yes"/>
      <point x="211" y="71"/>
      <point x="223" y="63"/>
      <point x="233" y="63" type="curve" smooth="yes"/>
      <point x="250" y="63"/>
      <point x="267" y="75"/>
      <point x="279" y="88" type="curve" smooth="yes"/>
      <point x="288" y="99"/>
      <point x="292" y="105"/>
      <point x="300" y="105" type="curve" smooth="yes"/>
      <point x="310" y="105"/>
      <point x="317" y="99"/>
      <point x="318" y="85" type="curve" smooth="yes"/>
      <point x="320" y="49"/>
      <point x="246" y="-15"/>
      <point x="182" y="-15" type="curve" smooth="yes"/>
      <point x="138" y="-15"/>
      <point x="117" y="9"/>
      <point x="115" y="40" type="curve" smooth="yes"/>
      <point x="113" y="84"/>
      <point x="131" y="121"/>
      <point x="151" y="166" type="curve" smooth="yes"/>
      <point x="217" y="317" type="line" smooth="yes"/>
      <point x="224" y="333"/>
      <point x="227" y="346"/>
      <point x="227" y="365" type="curve" smooth="yes"/>
      <point x="227" y="385"/>
      <point x="219" y="394"/>
      <point x="203" y="394" type="curve" smooth="yes"/>
      <point x="186" y="394"/>
      <point x="175" y="387"/>
      <point x="162" y="373" type="curve" smooth="yes"/>
      <point x="151" y="360"/>
      <point x="142" y="352"/>
      <point x="133" y="352" type="curve" smooth="yes"/>
      <point x="124" y="352"/>
      <point x="117" y="357"/>
      <point x="116" y="371" type="curve" smooth="yes"/>
      <point x="115" y="406"/>
      <point x="205" y="480"/>
      <point x="276" y="480" type="curve" smooth="yes"/>
      <point x="308" y="480"/>
      <point x="324" y="462"/>
      <point x="325" y="436" type="curve" smooth="yes"/>
      <point x="327" y="396"/>
      <point x="310" y="354"/>
      <point x="285" y="299" type="curve" smooth="yes"/>
      <point x="231" y="181" type="line" smooth="yes"/>
      <point x="212" y="140"/>
      <point x="209" y="108"/>
    </contour>
  </outline>
</glyph>
<glyph name="Tbar" format="2">
  <advance width="562"/>
  <unicode hex="0166"/>
  <outline>
    <contour>
      <point x="561" y="358" type="curve" smooth="yes"/>
      <point x="242" y="358" type="line" smooth="yes"/>
      <point x="224" y="358"/>
      <point x="209.0" y="346.0"/>
      <point x="209" y="334" type="curve" smooth="yes"/>
      <point x="209.0" y="323"/>
      <point x="217.0" y="316"/>
      <point x="232" y="316" type="curve" smooth="yes"/>
      <point x="551" y="316" type="line" smooth="yes"/>
      <point x="569.0" y="316"/>
      <point x="584.0" y="328.0"/>
      <point x="584" y="340" type="curve" smooth="yes"/>
      <point x="584.0" y="351"/>
      <point x="576" y="358"/>
    </contour>
    <component base="T"/>
  </outline>
</glyph>
<glyph name="mu" format="2">
  <advance width="550"/>
  <unicode hex="03BC"/>
  <outline>
    <contour>
      <point x="144.0" y="135.0" type="line"/>
      <point x="95.89852138677455" y="-19.325577217431686"/>
      <point x="32.02814915183401" y="-129.8936587597382"/>
      <point x="14" y="-198.0" type="curve" smooth="yes"/>
      <point x="4" y="-233.0"/>
      <point x="19" y="-254.0"/>
      <point x="46" y="-254.0" type="curve" smooth="yes"/>
      <point x="70" y="-254.0"/>
      <point x="96" y="-230.0"/>
      <point x="105" y="-198.0" type="curve" smooth="yes"/>
      <point x="123.05087745857824" y="-128.80496974211673"/>
      <point x="129.03901311690518" y="-19.8740201433271"/>
      <point x="177.0" y="135.0" type="curve"/>
    </contour>
    <component base="u"/>
  </outline>
</glyph>
<glyph name="fraction" format="2">
  <advance width="643"/>
  <unicode hex="2044"/>
  <outline>
    <contour>
      <point x="730" y="580" type="curve" smooth="yes"/>
      <point x="747" y="594"/>
      <point x="756" y="607"/>
      <point x="759" y="620" type="curve" smooth="yes"/>
      <point x="763" y="635"/>
      <point x="754" y="650"/>
      <point x="737" y="650" type="curve" smooth="yes"/>
      <point x="722" y="650"/>
      <point x="707" y="643"/>
      <point x="693" y="628" type="curve" smooth="yes"/>
      <point x="618" y="550"/>
      <point x="462" y="395"/>
      <point x="419" y="355" type="curve" smooth="yes"/>
      <point x="372" y="310"/>
      <point x="183" y="139"/>
      <point x="66" y="40" type="curve" smooth="yes"/>
      <point x="57" y="32"/>
      <point x="52" y="24"/>
      <point x="51" y="17" type="curve" smooth="yes"/>
      <point x="47" y="4"/>
      <point x="52" y="-16"/>
      <point x="78" y="-16" type="curve" smooth="yes"/>
      <point x="92" y="-16"/>
      <point x="106" y="-12"/>
      <point x="122" y="5" type="curve" smooth="yes"/>
      <point x="215" y="99"/>
      <point x="375" y="264"/>
      <point x="443" y="328" type="curve" smooth="yes"/>
      <point x="496" y="378"/>
      <point x="649" y="512"/>
    </contour>
  </outline>
</glyph>
<glyph name="bracketangleleft" format="2">
  <advance width="395"/>
  <unicode hex="27E8"/>
  <outline>
    <contour>
      <point x="241" y="287" type="line"/>
      <point x="555" y="701" type="line" smooth="yes"/>
      <point x="560" y="708"/>
      <point x="569" y="721"/>
      <point x="571" y="729" type="curve" smooth="yes"/>
      <point x="574" y="739"/>
      <point x="570" y="748"/>
      <point x="561" y="748" type="curve" smooth="yes"/>
      <point x="553" y="748"/>
      <point x="544" y="743"/>
      <point x="535" y="733" type="curve" smooth="yes"/>
      <point x="181" y="326" type="line" smooth="yes"/>
      <point x="170" y="313"/>
      <point x="161" y="299"/>
      <point x="158" y="287" type="curve" smooth="yes"/>
      <point x="155" y="275"/>
      <point x="156" y="261"/>
      <point x="160" y="248" type="curve" smooth="yes"/>
      <point x="296" y="-159" type="line" smooth="yes"/>
      <point x="300" y="-169"/>
      <point x="306" y="-174"/>
      <point x="314" y="-174" type="curve" smooth="yes"/>
      <point x="323" y="-174"/>
      <point x="332" y="-165"/>
      <point x="334" y="-155" type="curve" smooth="yes"/>
      <point x="337" y="-147"/>
      <point x="334" y="-134"/>
      <point x="333" y="-127" type="curve" smooth="yes"/>
    </contour>
  </outline>
</glyph>
<glyph name="circumflexcomb" format="2">
  <outline>
    <contour>
      <point x="211" y="552" type="curve" smooth="yes"/>
      <point x="294" y="630" type="line" smooth="yes"/>
      <point x="319" y="654"/>
      <point x="337" y="664"/>
      <point x="360" y="664" type="curve" smooth="yes"/>
      <point x="381" y="664"/>
      <point x="395" y="654"/>
      <point x="407" y="631" type="curve" smooth="yes"/>
      <point x="449" y="552" type="line" smooth="yes"/>
      <point x="452" y="545"/>
      <point x="457" y="535"/>
      <point x="455" y="526" type="curve" smooth="yes"/>
      <point x="452" y="515"/>
      <point x="445" y="510"/>
      <point x="433" y="510" type="curve" smooth="yes"/>
      <point x="425" y="510"/>
      <point x="418" y="516"/>
      <point x="406" y="527" type="curve" smooth="yes"/>
      <point x="323" y="607" type="line"/>
      <point x="367" y="607" type="line"/>
      <point x="240" y="527" type="line" smooth="yes"/>
      <point x="222" y="516"/>
      <point x="213" y="510"/>
      <point x="205" y="510" type="curve" smooth="yes"/>
      <point x="193" y="510"/>
      <point x="188" y="515"/>
      <point x="191" y="526" type="curve" smooth="yes"/>
      <point x="193" y="535"/>
      <point x="204" y="545"/>
    </contour>
  </outline>
</glyph>
<glyph name="commaaccentcomb" format="2">
  <anchor x="25" y="32" name="center"/>
  <outline>
    <contour>
      <point x="51" y="-150" type="curve" smooth="yes"/>
      <point x="64" y="-150" type="line" smooth="yes"/>
      <point x="75" y="-150"/>
      <point x="76" y="-156"/>
      <point x="74" y="-166" type="curve" smooth="yes"/>
      <point x="67" y="-190"/>
      <point x="50" y="-202"/>
      <point x="24" y="-208" type="curve" smooth="yes"/>
      <point x="8" y="-212"/>
      <point x="2" y="-218"/>
      <point x="-1" y="-227" type="curve" smooth="yes"/>
      <point x="-4" y="-237"/>
      <point x="2" y="-245"/>
      <point x="16" y="-245" type="curve" smooth="yes"/>
      <point x="54" y="-245"/>
      <point x="106" y="-208"/>
      <point x="124" y="-140" type="curve" smooth="yes"/>
      <point x="141" y="-80"/>
      <point x="120" y="-54"/>
      <point x="82" y="-54" type="curve" smooth="yes"/>
      <point x="55" y="-54"/>
      <point x="26" y="-76"/>
      <point x="19" y="-101" type="curve" smooth="yes"/>
      <point x="11" y="-129"/>
      <point x="25" y="-150"/>
    </contour>
  </outline>
</glyph>
<glyph name="jdotless" format="2">
  <advance width="284"/>
  <outline>
    <contour>
      <point x="284" y="299" type="curve" smooth="yes"/>
      <point x="196" y="-62" type="line" smooth="yes"/>
      <point x="168" y="-178"/>
      <point x="96.0" y="-245.0"/>
      <point x="12" y="-245" type="curve" smooth="yes"/>
      <point x="-30" y="-245"/>
      <point x="-53" y="-218"/>
      <point x="-53" y="-188" type="curve" smooth="yes"/>
      <point x="-53" y="-152"/>
      <point x="-31" y="-122"/>
      <point x="8" y="-122" type="curve" smooth="yes"/>
      <point x="36.30882352941177" y="-122.0"/>
      <point x="58.955882352941174" y="-164.0"/>
      <point x="85" y="-164" type="curve" smooth="yes"/>
      <point x="101.73076923076923" y="-164.0"/>
      <point x="114" y="-152"/>
      <point x="114" y="-127" type="curve" smooth="yes"/>
      <point x="114.0" y="-95.0"/>
      <point x="115" y="-48"/>
      <point x="122" y="-20" type="curve" smooth="yes"/>
      <point x="209" y="317" type="line" smooth="yes"/>
      <point x="215" y="342"/>
      <point x="219" y="356"/>
      <point x="218" y="374" type="curve" smooth="yes"/>
      <point x="218" y="387"/>
      <point x="210" y="394"/>
      <point x="196" y="394" type="curve" smooth="yes"/>
      <point x="181" y="394"/>
      <point x="172" y="386"/>
      <point x="160" y="373" type="curve" smooth="yes"/>
      <point x="149" y="360"/>
      <point x="140" y="352"/>
      <point x="131" y="352" type="curve" smooth="yes"/>
      <point x="119" y="352"/>
      <point x="110" y="358"/>
      <point x="109" y="375" type="curve" smooth="yes"/>
      <point x="108" y="409"/>
      <point x="198" y="480"/>
      <point x="269" y="480" type="curve" smooth="yes"/>
      <point x="302" y="480"/>
      <point x="318" y="462"/>
      <point x="319" y="436" type="curve" smooth="yes"/>
      <point x="321" y="398"/>
      <point x="295" y="345"/>
    </contour>
  </outline>
</glyph>
<glyph name="tildecomb.case" format="2">
  <anchor x="568" y="694" name="center"/>
  <outline>
    <contour>
      <point x="441" y="741" type="curve" smooth="yes"/>
      <point x="463" y="784"/>
      <point x="513" y="816"/>
      <point x="569" y="816" type="curve" smooth="yes"/>
      <point x="598" y="816"/>
      <point x="624" y="810"/>
      <point x="641" y="784" type="curve" smooth="yes"/>
      <point x="653" y="765"/>
      <point x="658" y="757"/>
      <point x="671" y="757" type="curve" smooth="yes"/>
      <point x="685" y="757"/>
      <point x="700" y="770"/>
      <point x="714" y="795" type="curve" smooth="yes"/>
      <point x="722" y="808"/>
      <point x="734" y="816"/>
      <point x="747" y="816" type="curve" smooth="yes"/>
      <point x="758" y="816"/>
      <point x="764" y="810"/>
      <point x="752" y="787" type="curve" smooth="yes"/>
      <point x="724" y="737"/>
      <point x="678" y="713"/>
      <point x="630" y="714" type="curve" smooth="yes"/>
      <point x="587" y="714"/>
      <point x="560" y="724"/>
      <point x="546" y="744" type="curve" smooth="yes"/>
      <point x="534" y="764"/>
      <point x="531" y="772"/>
      <point x="522" y="772" type="curve" smooth="yes"/>
      <point x="507" y="772"/>
      <point x="492" y="758"/>
      <point x="476" y="728" type="curve" smooth="yes"/>
      <point x="470" y="716"/>
      <point x="456" y="710"/>
      <point x="444" y="710" type="curve" smooth="yes"/>
      <point x="434" y="710"/>
      <point x="427" y="716"/>
    </contour>
  </outline>
</glyph>
